<svg id="Layer_1" data-name="Layer 1" xmlns="http://www.w3.org/2000/svg" xmlns:xlink="http://www.w3.org/1999/xlink" viewBox="0 0 51 39"><defs><style>.cls-1,.cls-2,.cls-3{fill:none;}.cls-1,.cls-4{clip-rule:evenodd;}.cls-3,.cls-32{fill-rule:evenodd;}.cls-32,.cls-34,.cls-4{fill:#fff;}.cls-5{clip-path:url(#clip-path);}.cls-6{clip-path:url(#clip-path-2);}.cls-7{clip-path:url(#clip-path-3);}.cls-8{clip-path:url(#clip-path-4);}.cls-9{clip-path:url(#clip-path-5);}.cls-10{clip-path:url(#clip-path-6);}.cls-11{clip-path:url(#clip-path-7);}.cls-12{clip-path:url(#clip-path-8);}.cls-13{clip-path:url(#clip-path-9);}.cls-14{clip-path:url(#clip-path-10);}.cls-15{clip-path:url(#clip-path-11);}.cls-16{clip-path:url(#clip-path-12);}.cls-17{clip-path:url(#clip-path-13);}.cls-18{clip-path:url(#clip-path-14);}.cls-19{fill:#797979;}.cls-20{clip-path:url(#clip-path-15);}.cls-21{clip-path:url(#clip-path-16);}.cls-22{isolation:isolate;}.cls-23{clip-path:url(#clip-path-17);}.cls-24{clip-path:url(#clip-path-18);}.cls-25{fill:#f2f2f2;}.cls-26{clip-path:url(#clip-path-20);}.cls-27{clip-path:url(#clip-path-22);}.cls-28{clip-path:url(#clip-path-24);}.cls-29{fill:#717171;}.cls-30{clip-path:url(#clip-path-37);}.cls-31{clip-path:url(#clip-path-38);}.cls-33{clip-path:url(#clip-path-39);}.cls-35{clip-path:url(#clip-path-40);}.cls-36{clip-path:url(#clip-path-41);}.cls-37{clip-path:url(#clip-path-43);}.cls-38{clip-path:url(#clip-path-44);}.cls-39{clip-path:url(#clip-path-45);}.cls-40{clip-path:url(#clip-path-46);}</style><clipPath id="clip-path"><path class="cls-1" d="M-72.05-68.39v-1.39a1.71,1.71,0,0,0,1.59-1.1l5.11-13.47a3.54,3.54,0,0,1,3.29-2.27h2.3v1.39h-2.3a2.14,2.14,0,0,0-2,1.37l-5.11,13.47a3.11,3.11,0,0,1-2.89,2"/></clipPath><clipPath id="clip-path-2"><path class="cls-1" d="M-68.85-75.27-72-83.6a2.54,2.54,0,0,0-2.36-1.63h-1.57v-1.39h1.57a3.94,3.94,0,0,1,3.66,2.53l3.16,8.33Z"/></clipPath><clipPath id="clip-path-3"><rect class="cls-2" x="-65.12" y="-86.63" width="18.55" height="18.6"/></clipPath><clipPath id="clip-path-4"><path class="cls-1" d="M-36.4-69.26a9,9,0,0,1-8.93-8.94v-7.73h1.39v7.73a7.55,7.55,0,0,0,7.54,7.55,7.55,7.55,0,0,0,7.54-7.55v-7.73h1.39v7.73a9,9,0,0,1-8.93,8.94"/></clipPath><clipPath id="clip-path-5"><path class="cls-1" d="M-49.77-48.35v-1.39a6.7,6.7,0,0,0,3.82-1.19,6.72,6.72,0,0,0,2.47-3.16l3.28-8.63a6,6,0,0,1,5.58-3.86h3.33v1.39h-3.33a4.61,4.61,0,0,0-4.29,3l-3.28,8.63a8.11,8.11,0,0,1-3,3.81,8.08,8.08,0,0,1-4.61,1.44"/></clipPath><clipPath id="clip-path-6"><rect class="cls-2" x="-75.95" y="-86.63" width="54.87" height="38.32"/></clipPath><clipPath id="clip-path-7"><path class="cls-1" d="M23.49-28.76a6,6,0,0,0,6-6,6,6,0,0,0-6-6,6,6,0,0,0-6,6A6,6,0,0,0,23.49-28.76Zm6.1-.82,5.63,5.63a1,1,0,0,1,0,1.41,1,1,0,0,1-1.41,0l-5.69-5.69a8,8,0,0,1-4.62,1.47,8,8,0,0,1-8-8,8,8,0,0,1,8-8,8,8,0,0,1,8,8A8,8,0,0,1,29.58-29.58Z"/></clipPath><clipPath id="clip-path-8"><path class="cls-1" d="M92-26a2.71,2.71,0,0,0,.54-1.69c-1.43-.08-.95,2-.54,1.69"/></clipPath><clipPath id="clip-path-9"><path class="cls-1" d="M92.51-27.72c-.05,0,0,0,0,0"/></clipPath><clipPath id="clip-path-10"><polygon class="cls-1" points="97.54 -19.81 70.98 -19.81 70.98 -32.84 70.98 -45.87 97.54 -45.87 97.54 -19.81"/></clipPath><clipPath id="clip-path-11"><path class="cls-1" d="M98.05-30l0,0c0,.08.34.29,0,0"/></clipPath><clipPath id="clip-path-12"><path class="cls-1" d="M152-26a2.71,2.71,0,0,0,.54-1.69c-1.43-.08-.95,2-.54,1.69"/></clipPath><clipPath id="clip-path-13"><path class="cls-1" d="M152.51-27.72c-.05,0,0,0,0,0"/></clipPath><clipPath id="clip-path-14"><path class="cls-1" d="M158.05-30l0,0c0,.08.34.29,0,0"/></clipPath><clipPath id="clip-path-15"><rect class="cls-2" x="7.53" y="0.37" width="36.62" height="35.01"/></clipPath><clipPath id="clip-path-16"><rect class="cls-2" x="-73.77" y="-422.6" width="609.77" height="1978.9"/></clipPath><clipPath id="clip-path-17"><rect class="cls-2" x="7.53" y="0.17" width="37.4" height="35.77"/></clipPath><clipPath id="clip-path-18"><path class="cls-1" d="M42.6,16.8A17.55,17.55,0,1,0,25.08,35.38h.33V31.15h-.33A13.27,13.27,0,1,1,38.35,16.8H36.67l3.74,6.47,3.74-6.47Z"/></clipPath><clipPath id="clip-path-20"><polygon class="cls-1" points="25.76 5.91 24.22 8.15 24.22 18.52 27.47 18.52 27.47 8.15 25.76 5.91"/></clipPath><clipPath id="clip-path-22"><polygon class="cls-1" points="17.23 23.14 19.64 23.52 27.28 19.12 25.66 16.32 18.02 20.72 17.23 23.14"/></clipPath><clipPath id="clip-path-24"><path class="cls-1" d="M28,17.88a2.2,2.2,0,1,1-2.2-2.2,2.2,2.2,0,0,1,2.2,2.2"/></clipPath><clipPath id="clip-path-37"><path class="cls-1" d="M82.32,32.84l-15.14.32a1,1,0,0,0,0,1.92l15.14-.32a1,1,0,0,0,0-1.92Zm11-19.43L66.78,14a1,1,0,0,0,0,1.92l26.5-.55a1,1,0,0,0,0-1.92Zm-4.53,9.7L67,23.56a1,1,0,0,0,0,1.92L88.79,25a1,1,0,0,0,0-1.92ZM66.62,6.29l26.5-.55a1,1,0,0,0,0-1.92l-26.5.55a1,1,0,0,0,0,1.92Z"/></clipPath><clipPath id="clip-path-38"><rect class="cls-2" x="81.24" y="11.62" width="21.63" height="24.53"/></clipPath><clipPath id="clip-path-39"><path class="cls-4" d="M132.15,15.93c0-6.64,9.21-7.93,11.34-2.09a.21.21,0,0,0,.42,0C146,8,155.25,9.29,155.25,15.93c0,4.55-7.84,11.29-11.55,13.93C140,27.22,132.15,20.48,132.15,15.93Z"/></clipPath><clipPath id="clip-path-40"><path class="cls-1" d="M-34.22,20.7-23.37,9.85a.78.78,0,0,1,1.09,0l3,3a.78.78,0,0,1,0,1.1L-33.67,28.4l0,0,0,0h0l0,0h0l0,0h-.7l-.07,0h0l0,0-.14-.11-8.73-8.73a.78.78,0,0,1,0-1.09l3-3a.78.78,0,0,1,1.1,0l5.15,5.15"/></clipPath><clipPath id="clip-path-41"><path class="cls-1" d="M242-60A12.65,12.65,0,0,1,229.75-72.5,12.65,12.65,0,0,1,242-85h30.55A12.65,12.65,0,0,1,284.75-72.5,12.65,12.65,0,0,1,272.53-60H242Z"/></clipPath><clipPath id="clip-path-43"><ellipse class="cls-2" cx="271.58" cy="-72.5" rx="12.83" ry="12.5"/></clipPath><clipPath id="clip-path-44"><rect class="cls-2" x="13.59" y="67.52" width="24.97" height="26.95"/></clipPath><clipPath id="clip-path-45"><rect class="cls-2" x="138.47" y="68.3" width="17.89" height="20.41"/></clipPath><clipPath id="clip-path-46"><rect class="cls-2" x="129.68" y="69.27" width="22.24" height="22"/></clipPath></defs><title>icones</title><path class="cls-19" d="M33.44,27.33a3,3,0,0,1,3.27,2.89c0,1.07-.49,1.91-2.18,3.72L32,36.61v.11h4.83v1.16H30.2V37l3.57-3.89c1.33-1.45,1.65-2,1.65-2.83a2,2,0,0,0-4,.2H30.14A3.11,3.11,0,0,1,33.44,27.33Z"/><path class="cls-19" d="M43.75,35.74h-5V34.57c.92-1.64,2.56-4.22,4.42-7H45v7h1.46v1.15H45v2.14H43.75ZM40,34.6h3.72V28.76h-.09c-1.06,1.54-2.4,3.66-3.63,5.75Z"/><g class="cls-20"><g class="cls-21"><g class="cls-22"><g class="cls-23"><g class="cls-24"><g class="cls-23"><rect class="cls-25" x="-0.6" y="-7.76" width="52.88" height="51.27"/></g></g></g></g></g></g><g class="cls-26"><g class="cls-21"><rect class="cls-25" x="16.09" y="-2.22" width="19.5" height="28.87"/></g></g><g class="cls-27"><g class="cls-21"><rect class="cls-25" x="9.09" y="8.19" width="26.31" height="23.46"/></g></g><g class="cls-28"><g class="cls-21"><rect class="cls-25" x="15.51" y="7.55" width="20.67" height="20.66"/></g></g><g class="cls-20"><g class="cls-21"><g class="cls-22"><g class="cls-23"><g class="cls-24"><g class="cls-23"><rect class="cls-29" x="-0.6" y="-7.76" width="52.88" height="51.27"/></g></g></g></g></g></g><g class="cls-26"><g class="cls-21"><rect class="cls-29" x="16.09" y="-2.22" width="19.5" height="28.87"/></g></g><g class="cls-27"><g class="cls-21"><rect class="cls-29" x="9.09" y="8.19" width="26.31" height="23.46"/></g></g><g class="cls-28"><g class="cls-21"><rect class="cls-29" x="15.51" y="7.55" width="20.67" height="20.66"/></g></g><path class="cls-32" d="M132.15,15.93c0-6.64,9.21-7.93,11.34-2.09a.21.21,0,0,0,.42,0C146,8,155.25,9.29,155.25,15.93c0,4.55-7.84,11.29-11.55,13.93C140,27.22,132.15,20.48,132.15,15.93Z"/><g class="cls-33"><rect class="cls-34" x="-169.85" y="-253.88" width="375" height="1217"/></g></svg>