<?xml version="1.0" encoding="UTF-8" standalone="no"?>
<!-- Created with Inkscape (http://www.inkscape.org/) -->

<svg
   xmlns:dc="http://purl.org/dc/elements/1.1/"
   xmlns:cc="http://creativecommons.org/ns#"
   xmlns:rdf="http://www.w3.org/1999/02/22-rdf-syntax-ns#"
   xmlns:svg="http://www.w3.org/2000/svg"
   xmlns="http://www.w3.org/2000/svg"
   xmlns:sodipodi="http://sodipodi.sourceforge.net/DTD/sodipodi-0.dtd"
   xmlns:inkscape="http://www.inkscape.org/namespaces/inkscape"
   version="1.1"
   id="svg2"
   xml:space="preserve"
   width="66.666664"
   height="52.006535"
   viewBox="0 0 66.666664 52.006535"
   sodipodi:docname="icones-03_off.svg"
   inkscape:version="0.92+devel unknown"><metadata
     id="metadata8"><rdf:RDF><cc:Work
         rdf:about=""><dc:format>image/svg+xml</dc:format><dc:type
           rdf:resource="http://purl.org/dc/dcmitype/StillImage" /><dc:title></dc:title></cc:Work></rdf:RDF></metadata><defs
     id="defs6"><clipPath
       clipPathUnits="userSpaceOnUse"
       id="clipPath20"><path
         d="M 24.219,31.446 11.847,19.979 c -0.379,-0.346 -0.455,-0.913 -0.18,-1.349 v 0 c 0.195,-0.308 0.539,-0.493 0.919,-0.493 v 0 h 2.491 V 9.366 c 0,-0.583 0.476,-1.059 1.06,-1.059 v 0 h 5.828 c 0.574,0 1.042,0.467 1.042,1.041 v 0 5.35 h 3.986 v -5.35 c 0,-0.574 0.467,-1.041 1.042,-1.041 v 0 h 5.828 c 0.584,0 1.06,0.476 1.06,1.059 v 0 8.771 h 2.491 c 0.382,0 0.726,0.186 0.92,0.496 v 0 c 0.274,0.437 0.197,1.004 -0.182,1.348 v 0 l -4.309,3.953 v 6.527 h -5.535 v -1.448 l -2.659,2.44 c -0.195,0.177 -0.448,0.274 -0.712,0.274 v 0 c -0.265,0 -0.52,-0.099 -0.718,-0.281 m 0.719,-1.005 4.596,-4.218 v 3.012 h 3.082 v -5.84 L 37.01,19.363 H 33.696 V 9.534 h -5.477 v 5.237 c 0,0.636 -0.517,1.154 -1.152,1.154 v 0 h -4.134 c -0.635,0 -1.153,-0.518 -1.153,-1.154 v 0 -5.237 h -5.477 v 9.829 h -3.316 z"
         id="path18"
         inkscape:connector-curvature="0" /></clipPath><clipPath
       clipPathUnits="userSpaceOnUse"
       id="clipPath30"><path
         d="M 0,39.005 H 50 V 0 H 0 Z"
         id="path28"
         inkscape:connector-curvature="0" /></clipPath><clipPath
       clipPathUnits="userSpaceOnUse"
       id="clipPath38"><path
         d="m 131.652,-75.892 c 0,6.639 9.213,7.934 11.34,2.094 0.079,-0.218 0.336,-0.215 0.416,0.004 2.126,5.836 11.339,4.539 11.339,-2.098 0,-4.55 -7.837,-11.293 -11.548,-13.929 -3.714,2.636 -11.547,9.379 -11.547,13.929"
         clip-rule="evenodd"
         id="path36"
         inkscape:connector-curvature="0" /></clipPath></defs><sodipodi:namedview
     pagecolor="#ffffff"
     bordercolor="#666666"
     inkscape:document-rotation="0"
     borderopacity="1"
     objecttolerance="10"
     gridtolerance="10"
     guidetolerance="10"
     inkscape:pageopacity="0"
     inkscape:pageshadow="2"
     inkscape:window-width="1440"
     inkscape:window-height="803"
     id="namedview4"
     showgrid="false"
     inkscape:zoom="5.556994"
     inkscape:cx="28.233759"
     inkscape:cy="17.367428"
     inkscape:window-x="0"
     inkscape:window-y="27"
     inkscape:window-maximized="1"
     inkscape:current-layer="g10" /><g
     id="g10"
     inkscape:groupmode="layer"
     inkscape:label="icones"
     transform="matrix(1.3333333,0,0,-1.3333333,0,52.006533)"><g
       id="g14"
       style="fill:#808080"><g
         id="g16"
         clip-path="url(#clipPath20)"
         style="fill:#808080"><path
           d="M 6.502,36.727 H 43.497 V 3.307 H 6.502 Z"
           style="fill:#808080;fill-opacity:1;fill-rule:nonzero;stroke:none"
           id="path22"
           inkscape:connector-curvature="0" /></g></g><g
       id="g24"><g
         id="g26"
         clip-path="url(#clipPath30)"><g
           id="g32"><g
             id="g34"
             clip-path="url(#clipPath38)"><path
               d="m -170.348,-1023.079 h 375 v 1217 h -375 z"
               style="fill:#ffffff;fill-opacity:1;fill-rule:nonzero;stroke:none"
               id="path40"
               inkscape:connector-curvature="0" /></g></g></g></g></g></svg>