<?xml version="1.0" encoding="UTF-8" standalone="no"?>
<!-- Created with Inkscape (http://www.inkscape.org/) -->

<svg
   xmlns:dc="http://purl.org/dc/elements/1.1/"
   xmlns:cc="http://creativecommons.org/ns#"
   xmlns:rdf="http://www.w3.org/1999/02/22-rdf-syntax-ns#"
   xmlns:svg="http://www.w3.org/2000/svg"
   xmlns="http://www.w3.org/2000/svg"
   xmlns:sodipodi="http://sodipodi.sourceforge.net/DTD/sodipodi-0.dtd"
   xmlns:inkscape="http://www.inkscape.org/namespaces/inkscape"
   version="1.1"
   id="svg2"
   xml:space="preserve"
   width="108.888"
   height="84"
   viewBox="0 0 108.888 84"
   sodipodi:docname="logo.svg"
   inkscape:version="0.92.1 r"><metadata
     id="metadata8"><rdf:RDF><cc:Work
         rdf:about=""><dc:format>image/svg+xml</dc:format><dc:type
           rdf:resource="http://purl.org/dc/dcmitype/StillImage" /><dc:title></dc:title></cc:Work></rdf:RDF></metadata><defs
     id="defs6"><clipPath
       clipPathUnits="userSpaceOnUse"
       id="clipPath20"><path
         d="m 25.852,50.658 c -1.451,0 -2.773,-0.913 -3.288,-2.272 v 0 L 17.451,34.913 c -0.25,-0.657 -0.888,-1.098 -1.589,-1.098 v 0 -1.393 c 1.273,0 2.435,0.802 2.888,1.996 v 0 l 5.113,13.474 c 0.311,0.82 1.11,1.374 1.989,1.374 v 0 h 2.298 v 1.392 z"
         id="path18"
         inkscape:connector-curvature="0" /></clipPath><clipPath
       clipPathUnits="userSpaceOnUse"
       id="clipPath30"><path
         d="m 11.966,50.657 v -1.391 h 1.574 c 1.042,0 1.991,-0.655 2.361,-1.633 v 0 l 3.162,-8.329 1.299,0.494 -3.162,8.331 c -0.574,1.512 -2.044,2.528 -3.66,2.528 v 0 z"
         id="path28"
         inkscape:connector-curvature="0" /></clipPath><clipPath
       clipPathUnits="userSpaceOnUse"
       id="clipPath40"><path
         d="m 32.065,49.266 c 4.378,0 7.886,-3.551 7.886,-7.907 v 0 c 0,-4.356 -3.535,-7.907 -7.884,-7.907 v 0 c -4.347,0 -7.884,3.57 -7.884,7.887 v 0 h -1.39 c 0,-5.082 4.161,-9.278 9.274,-9.278 v 0 c 5.115,0 9.275,4.175 9.275,9.298 v 0 c 0,5.123 -4.135,9.299 -9.277,9.299 v 0 z"
         id="path38"
         inkscape:connector-curvature="0" /></clipPath><clipPath
       clipPathUnits="userSpaceOnUse"
       id="clipPath50"><path
         d="m 59.054,49.962 v -7.726 c 0,-4.163 -3.38,-7.552 -7.536,-7.552 v 0 c -4.156,0 -7.539,3.389 -7.539,7.552 v 0 7.726 H 42.59 v -7.726 c 0,-4.931 4.005,-8.944 8.928,-8.944 v 0 c 4.922,0 8.927,4.013 8.927,8.944 v 0 7.726 z"
         id="path48"
         inkscape:connector-curvature="0" /></clipPath><clipPath
       clipPathUnits="userSpaceOnUse"
       id="clipPath60"><path
         d="m 53.301,30.613 c -2.465,0 -4.709,-1.551 -5.585,-3.859 v 0 L 44.439,18.12 c -0.487,-1.285 -1.343,-2.378 -2.472,-3.158 v 0 c -1.13,-0.781 -2.453,-1.193 -3.824,-1.193 v 0 -1.392 c 1.654,0 3.25,0.498 4.613,1.44 v 0 c 1.362,0.941 2.393,2.258 2.982,3.808 v 0 l 3.276,8.633 c 0.671,1.773 2.394,2.962 4.287,2.962 v 0 h 3.326 v 1.393 z"
         id="path58"
         inkscape:connector-curvature="0" /></clipPath><clipPath
       clipPathUnits="userSpaceOnUse"
       id="clipPath72"><path
         d="m 63.811,30.613 c -1.305,0 -2.563,-0.394 -3.637,-1.135 v 0 c -1.075,-0.743 -1.888,-1.781 -2.352,-3.004 v 0 l -3.645,-9.605 c -0.704,-1.854 -2.507,-3.1 -4.486,-3.1 v 0 -1.392 c 1.26,0 2.476,0.379 3.513,1.096 v 0 c 1.038,0.717 1.823,1.721 2.272,2.901 v 0 l 3.645,9.606 c 0.735,1.939 2.62,3.24 4.69,3.24 v 0 h 3.028 v 1.393 z"
         id="path70"
         inkscape:connector-curvature="0" /></clipPath><clipPath
       clipPathUnits="userSpaceOnUse"
       id="clipPath84"><path
         d="m 22.819,21.46 c 0,-5.028 4.105,-9.118 9.108,-9.118 v 0 1.392 c -4.238,0 -7.72,3.466 -7.72,7.726 v 0 c 0,4.259 3.452,7.725 7.704,7.725 v 0 c 4.253,0 7.712,-3.466 7.712,-7.725 v 0 c 0,-1.616 -0.492,-3.163 -1.423,-4.474 v 0 l 1.132,-0.808 c 1.1,1.548 1.682,3.375 1.682,5.282 v 0 c 0,5.027 -4.081,9.118 -9.099,9.118 v 0 c -5.019,0 -9.096,-4.091 -9.096,-9.118"
         id="path82"
         inkscape:connector-curvature="0" /></clipPath><clipPath
       clipPathUnits="userSpaceOnUse"
       id="clipPath96"><path
         d="M 0,63 H 81.666 V 0 H 0 Z"
         id="path94"
         inkscape:connector-curvature="0" /></clipPath><clipPath
       clipPathUnits="userSpaceOnUse"
       id="clipPath104"><path
         d="m 220.068,-51.897 c 0,6.639 9.213,7.935 11.34,2.094 0.079,-0.218 0.336,-0.215 0.416,0.004 2.126,5.837 11.339,4.539 11.339,-2.098 0,-4.55 -7.837,-11.293 -11.548,-13.929 -3.714,2.636 -11.547,9.379 -11.547,13.929"
         id="path102"
         inkscape:connector-curvature="0"
         style="clip-rule:evenodd" /></clipPath></defs><sodipodi:namedview
     pagecolor="#ffffff"
     bordercolor="#666666"
     borderopacity="1"
     objecttolerance="10"
     gridtolerance="10"
     guidetolerance="10"
     inkscape:pageopacity="0"
     inkscape:pageshadow="2"
     inkscape:window-width="944"
     inkscape:window-height="624"
     id="namedview4"
     showgrid="false"
     inkscape:zoom="2.8095238"
     inkscape:cx="54.444"
     inkscape:cy="42"
     inkscape:window-x="401"
     inkscape:window-y="121"
     inkscape:window-maximized="0"
     inkscape:current-layer="g10" /><g
     id="g10"
     inkscape:groupmode="layer"
     inkscape:label="icones"
     transform="matrix(1.3333333,0,0,-1.3333333,0,84)"><g
       id="g14"
       transform="matrix(1.4309906,0,0,1.4309906,-15.91431,-13.843153)"><g
         id="g16"
         clip-path="url(#clipPath20)"><path
           d="M 10.861,55.658 H 33.15 V 27.422 H 10.861 Z"
           style="fill:#fefefe;fill-opacity:1;fill-rule:nonzero;stroke:none"
           id="path22"
           inkscape:connector-curvature="0" /></g></g><g
       id="g24"
       transform="matrix(1.4309906,0,0,1.4309906,-15.91431,-13.843153)"><g
         id="g26"
         clip-path="url(#clipPath30)"><path
           d="M 6.967,55.657 H 25.362 V 34.303 H 6.967 Z"
           style="fill:#fefefe;fill-opacity:1;fill-rule:nonzero;stroke:none"
           id="path32"
           inkscape:connector-curvature="0" /></g></g><g
       id="g34"
       transform="matrix(1.4309906,0,0,1.4309906,-15.91431,-13.843153)"><g
         id="g36"
         clip-path="url(#clipPath40)"><path
           d="M 17.793,55.658 H 46.342 V 27.06 H 17.793 Z"
           style="fill:#fefefe;fill-opacity:1;fill-rule:nonzero;stroke:none"
           id="path42"
           inkscape:connector-curvature="0" /></g></g><g
       id="g44"
       transform="matrix(1.4309906,0,0,1.4309906,-15.91431,-13.843153)"><g
         id="g46"
         clip-path="url(#clipPath50)"><path
           d="M 37.59,54.962 H 65.445 V 28.292 H 37.59 Z"
           style="fill:#fefefe;fill-opacity:1;fill-rule:nonzero;stroke:none"
           id="path52"
           inkscape:connector-curvature="0" /></g></g><g
       id="g54"
       transform="matrix(1.4309906,0,0,1.4309906,-15.91431,-13.843153)"><g
         id="g56"
         clip-path="url(#clipPath60)"><path
           d="M 33.143,35.612 H 61.627 V 7.377 H 33.143 Z"
           style="fill:#fefefe;fill-opacity:1;fill-rule:nonzero;stroke:none"
           id="path62"
           inkscape:connector-curvature="0" /></g></g><path
       d="m 50.847125,16.528191 h 5.765461 v 1.990508 h -5.765461 z"
       style="fill:#fefefe;fill-opacity:1;fill-rule:nonzero;stroke:none;stroke-width:1.4309907"
       id="path64"
       inkscape:connector-curvature="0" /><g
       id="g66"
       transform="matrix(1.4309906,0,0,1.4309906,-15.91431,-13.843153)"><g
         id="g68"
         clip-path="url(#clipPath72)"><path
           d="M 44.69,35.612 H 71.839 V 7.377 H 44.69 Z"
           style="fill:#fefefe;fill-opacity:1;fill-rule:nonzero;stroke:none"
           id="path74"
           inkscape:connector-curvature="0" /></g></g><path
       d="m 65.461832,16.528191 h 5.765462 v 1.990508 h -5.765462 z"
       style="fill:#fefefe;fill-opacity:1;fill-rule:nonzero;stroke:none;stroke-width:1.4309907"
       id="path76"
       inkscape:connector-curvature="0" /><g
       id="g78"
       transform="matrix(1.4309906,0,0,1.4309906,-15.91431,-13.843153)"><g
         id="g80"
         clip-path="url(#clipPath84)"><path
           d="M 17.818,35.578 H 46.013 V 7.342 H 17.818 Z"
           style="fill:#fefefe;fill-opacity:1;fill-rule:nonzero;stroke:none"
           id="path86"
           inkscape:connector-curvature="0" /></g></g><path
       d="m 35.813138,3.8682174 h 2.853395 v 1.9919389 h -2.853395 z"
       style="fill:#fefefe;fill-opacity:1;fill-rule:nonzero;stroke:none;stroke-width:1.4309907"
       id="path88"
       inkscape:connector-curvature="0" /><g
       id="g90"><g
         id="g92"
         clip-path="url(#clipPath96)"><g
           id="g98"><g
             id="g100"
             clip-path="url(#clipPath104)"><path
               d="m -81.932,-999.084 h 375 v 1217 h -375 z"
               style="fill:#ffffff;fill-opacity:1;fill-rule:nonzero;stroke:none"
               id="path106"
               inkscape:connector-curvature="0" /></g></g></g></g></g></svg>