<?xml version="1.0" encoding="UTF-8" standalone="no"?>
<!-- Created with Inkscape (http://www.inkscape.org/) -->

<svg
   xmlns:dc="http://purl.org/dc/elements/1.1/"
   xmlns:cc="http://creativecommons.org/ns#"
   xmlns:rdf="http://www.w3.org/1999/02/22-rdf-syntax-ns#"
   xmlns:svg="http://www.w3.org/2000/svg"
   xmlns="http://www.w3.org/2000/svg"
   xmlns:sodipodi="http://sodipodi.sourceforge.net/DTD/sodipodi-0.dtd"
   xmlns:inkscape="http://www.inkscape.org/namespaces/inkscape"
   version="1.1"
   id="svg2"
   xml:space="preserve"
   width="66.666664"
   height="54.666668"
   viewBox="0 0 66.666664 54.666668"
   sodipodi:docname="msg.svg"
   inkscape:version="0.92.1 r"><metadata
     id="metadata8"><rdf:RDF><cc:Work
         rdf:about=""><dc:format>image/svg+xml</dc:format><dc:type
           rdf:resource="http://purl.org/dc/dcmitype/StillImage" /><dc:title></dc:title></cc:Work></rdf:RDF></metadata><defs
     id="defs6"><clipPath
       clipPathUnits="userSpaceOnUse"
       id="clipPath18"><path
         d="M 0,41 H 50 V 0 H 0 Z"
         id="path16"
         inkscape:connector-curvature="0" /></clipPath><clipPath
       clipPathUnits="userSpaceOnUse"
       id="clipPath26"><path
         d="m 131.652,85.572 c 0,6.638 9.213,7.934 11.34,2.094 0.079,-0.218 0.336,-0.215 0.416,0.003 2.126,5.837 11.339,4.539 11.339,-2.097 0,-4.55 -7.837,-11.293 -11.548,-13.929 -3.714,2.636 -11.547,9.379 -11.547,13.929"
         id="path24"
         inkscape:connector-curvature="0"
         style="clip-rule:evenodd" /></clipPath><clipPath
       clipPathUnits="userSpaceOnUse"
       id="clipPath36"><path
         d="m 16.091,33.976 c -1.657,0 -3.005,-1.353 -3.005,-3.016 v 0 -15.539 c 0,-1.662 1.348,-3.015 3.005,-3.015 v 0 h 3.182 l -0.596,-5.381 8.154,5.381 h 8.221 c 1.657,0 3.005,1.353 3.005,3.015 v 0 15.539 c 0,1.663 -1.348,3.016 -3.005,3.016 v 0 z M 14.217,15.421 V 30.96 c 0,1.037 0.841,1.881 1.874,1.881 v 0 h 18.961 c 1.033,0 1.874,-0.844 1.874,-1.881 v 0 -15.539 c 0,-1.036 -0.841,-1.88 -1.874,-1.88 v 0 h -8.56 L 20.067,9.3 l 0.469,4.241 h -4.445 c -1.033,0 -1.874,0.844 -1.874,1.88"
         id="path34"
         inkscape:connector-curvature="0" /></clipPath></defs><sodipodi:namedview
     pagecolor="#ffffff"
     bordercolor="#666666"
     borderopacity="1"
     objecttolerance="10"
     gridtolerance="10"
     guidetolerance="10"
     inkscape:pageopacity="0"
     inkscape:pageshadow="2"
     inkscape:window-width="745"
     inkscape:window-height="480"
     id="namedview4"
     showgrid="false"
     inkscape:zoom="4.3170731"
     inkscape:cx="33.333332"
     inkscape:cy="27.333334"
     inkscape:window-x="434"
     inkscape:window-y="168"
     inkscape:window-maximized="0"
     inkscape:current-layer="g10" /><g
     id="g10"
     inkscape:groupmode="layer"
     inkscape:label="icones"
     transform="matrix(1.3333333,0,0,-1.3333333,0,54.666667)"><g
       id="g12"><g
         id="g14"
         clip-path="url(#clipPath18)"><g
           id="g20"><g
             id="g22"
             clip-path="url(#clipPath26)"><path
               d="m -170.348,-861.615 h 375 v 1217 h -375 z"
               style="fill:#ffffff;fill-opacity:1;fill-rule:nonzero;stroke:none"
               id="path28"
               inkscape:connector-curvature="0" /></g></g></g></g><g
       id="g30"><g
         id="g32"
         clip-path="url(#clipPath36)"><path
           d="M 8.086,38.976 H 43.058 V 2.025 H 8.086 Z"
           style="fill:#aeaeae;fill-opacity:1;fill-rule:nonzero;stroke:none"
           id="path38"
           inkscape:connector-curvature="0" /></g></g></g></svg>