<?xml version="1.0" encoding="UTF-8" standalone="no"?>
<!-- Created with Inkscape (http://www.inkscape.org/) -->

<svg
   xmlns:dc="http://purl.org/dc/elements/1.1/"
   xmlns:cc="http://creativecommons.org/ns#"
   xmlns:rdf="http://www.w3.org/1999/02/22-rdf-syntax-ns#"
   xmlns:svg="http://www.w3.org/2000/svg"
   xmlns="http://www.w3.org/2000/svg"
   xmlns:sodipodi="http://sodipodi.sourceforge.net/DTD/sodipodi-0.dtd"
   xmlns:inkscape="http://www.inkscape.org/namespaces/inkscape"
   version="1.1"
   id="svg2"
   xml:space="preserve"
   width="70.76693"
   height="69.852798"
   viewBox="0 0 70.76693 69.852798"
   sodipodi:docname="player_forward.svg"
   inkscape:version="0.92.1 r"><metadata
     id="metadata8"><rdf:RDF><cc:Work
         rdf:about=""><dc:format>image/svg+xml</dc:format><dc:type
           rdf:resource="http://purl.org/dc/dcmitype/StillImage" /><dc:title></dc:title></cc:Work></rdf:RDF></metadata><defs
     id="defs6"><clipPath
       clipPathUnits="userSpaceOnUse"
       id="clipPath18"><path
         d="M 22.901,47.021 C 14.135,45.499 7.211,38.571 5.693,29.804 v 0 -7.253 C 7.415,12.603 16.101,5.021 26.538,5.021 v 0 c 11.672,0 21.155,9.485 21.155,21.157 v 0 c 0,10.432 -7.575,19.116 -17.519,20.843 v 0 z M 6.335,26.178 c 0,11.139 9.062,20.204 20.203,20.204 v 0 c 11.139,0 20.204,-9.065 20.204,-20.204 v 0 C 46.742,15.039 37.677,5.973 26.538,5.973 v 0 c -11.141,0 -20.203,9.066 -20.203,20.205 m 21.078,7.253 v -6.624 l -11.5,6.624 V 18.923 l 11.5,6.626 v -6.626 l 12.549,7.255 z m 0,0 v -6.624 z m -11.5,0 11.5,-6.624 z M 28.366,31.777 V 20.579 l 9.691,5.599 -9.691,-5.599 z m 0,0 9.691,-5.599 -9.691,-5.599 z m -11.502,0 V 20.579 l 9.711,5.599 -9.711,-5.599 z m 0,0 9.711,-5.599 -9.711,-5.599 z"
         id="path16"
         inkscape:connector-curvature="0" /></clipPath></defs><sodipodi:namedview
     pagecolor="#ffffff"
     bordercolor="#666666"
     borderopacity="1"
     objecttolerance="10"
     gridtolerance="10"
     guidetolerance="10"
     inkscape:pageopacity="0"
     inkscape:pageshadow="2"
     inkscape:window-width="640"
     inkscape:window-height="480"
     id="namedview4"
     showgrid="false"
     inkscape:zoom="3.3785332"
     inkscape:cx="35.975438"
     inkscape:cy="33.742453"
     inkscape:window-x="540"
     inkscape:window-y="211"
     inkscape:window-maximized="0"
     inkscape:current-layer="g10" /><g
     id="g10"
     inkscape:groupmode="layer"
     inkscape:label="icones"
     transform="matrix(1.3333333,0,0,-1.3333333,0,69.8528)"><g
       id="g12"><g
         id="g14"
         clip-path="url(#clipPath18)"><path
           d="M 0.382,52.334 H 52.693 V 0.021 H 0.382 Z"
           style="fill:#d3d0d0;fill-opacity:1;fill-rule:nonzero;stroke:none"
           id="path20"
           inkscape:connector-curvature="0" /></g></g></g></svg>