<?xml version="1.0" encoding="UTF-8" standalone="no"?>
<!-- Created with Inkscape (http://www.inkscape.org/) -->

<svg
   xmlns:dc="http://purl.org/dc/elements/1.1/"
   xmlns:cc="http://creativecommons.org/ns#"
   xmlns:rdf="http://www.w3.org/1999/02/22-rdf-syntax-ns#"
   xmlns:svg="http://www.w3.org/2000/svg"
   xmlns="http://www.w3.org/2000/svg"
   xmlns:sodipodi="http://sodipodi.sourceforge.net/DTD/sodipodi-0.dtd"
   xmlns:inkscape="http://www.inkscape.org/namespaces/inkscape"
   version="1.1"
   id="svg2"
   xml:space="preserve"
   width="70.76693"
   height="69.852798"
   viewBox="0 0 70.76693 69.852798"
   sodipodi:docname="player_return.svg"
   inkscape:version="0.92.1 r"><metadata
     id="metadata8"><rdf:RDF><cc:Work
         rdf:about=""><dc:format>image/svg+xml</dc:format><dc:type
           rdf:resource="http://purl.org/dc/dcmitype/StillImage" /><dc:title></dc:title></cc:Work></rdf:RDF></metadata><defs
     id="defs6"><clipPath
       clipPathUnits="userSpaceOnUse"
       id="clipPath18"><path
         d="M 0,52.39 H 53.075 V 0 H 0 Z"
         id="path16"
         inkscape:connector-curvature="0" /></clipPath><clipPath
       clipPathUnits="userSpaceOnUse"
       id="clipPath26"><path
         d="m -63.522,23.458 c 0,6.639 9.212,7.935 11.339,2.094 0.079,-0.218 0.336,-0.215 0.416,0.004 2.126,5.837 11.339,4.539 11.339,-2.098 0,-4.55 -7.837,-11.293 -11.548,-13.929 -3.713,2.636 -11.546,9.379 -11.546,13.929"
         id="path24"
         inkscape:connector-curvature="0"
         style="clip-rule:evenodd" /></clipPath><clipPath
       clipPathUnits="userSpaceOnUse"
       id="clipPath36"><path
         d="m 5.384,26.176 c 0,-11.67 9.482,-21.155 21.154,-21.155 v 0 c 11.674,0 21.157,9.485 21.157,21.155 v 0 c 0,11.674 -9.483,21.158 -21.157,21.158 v 0 C 14.866,47.334 5.384,37.85 5.384,26.176 m 0.951,0 c 0,11.141 9.064,20.206 20.203,20.206 v 0 c 11.14,0 20.204,-9.065 20.204,-20.206 v 0 C 46.742,15.039 37.678,5.972 26.538,5.972 v 0 c -11.139,0 -20.203,9.067 -20.203,20.204 m 19.328,0.631 v 6.624 L 13.114,26.176 25.663,18.923 v 6.625 -6.625 6.625 l 11.5,-6.625 v 14.508 z m 11.5,6.624 -11.5,-6.624 v 6.624 l -12.549,-7.255 12.549,7.255 v -6.624 z m -0.951,-1.655 -9.711,-5.6 z m 0,0 V 20.579 l -9.711,5.597 z m -11.502,0 -9.692,-5.6 z m 0,0 V 20.579 l -9.692,5.597 z m 1.791,-5.6 9.711,-5.597 z m -11.483,0 9.692,-5.597 z"
         id="path34"
         inkscape:connector-curvature="0" /></clipPath></defs><sodipodi:namedview
     pagecolor="#ffffff"
     bordercolor="#666666"
     borderopacity="1"
     objecttolerance="10"
     gridtolerance="10"
     guidetolerance="10"
     inkscape:pageopacity="0"
     inkscape:pageshadow="2"
     inkscape:window-width="640"
     inkscape:window-height="480"
     id="namedview4"
     showgrid="false"
     inkscape:zoom="3.3785332"
     inkscape:cx="35.383465"
     inkscape:cy="34.926399"
     inkscape:window-x="518"
     inkscape:window-y="238"
     inkscape:window-maximized="0"
     inkscape:current-layer="g10" /><g
     id="g10"
     inkscape:groupmode="layer"
     inkscape:label="icones"
     transform="matrix(1.3333333,0,0,-1.3333333,0,69.8528)"><g
       id="g12"><g
         id="g14"
         clip-path="url(#clipPath18)"><g
           id="g20"><g
             id="g22"
             clip-path="url(#clipPath26)"><path
               d="m -365.522,-923.729 h 375 v 1217 h -375 z"
               style="fill:#ffffff;fill-opacity:1;fill-rule:nonzero;stroke:none"
               id="path28"
               inkscape:connector-curvature="0" /></g></g></g></g><g
       id="g30"><g
         id="g32"
         clip-path="url(#clipPath36)"><path
           d="m 54.499,-2.964 h -58.58 v 57.606 h 58.58 z"
           style="fill:#d3d0d0;fill-opacity:1;fill-rule:nonzero;stroke:none"
           id="path38"
           inkscape:connector-curvature="0" /></g></g></g></svg>