<?xml version="1.0" encoding="UTF-8" standalone="no"?>
<!-- Created with Inkscape (http://www.inkscape.org/) -->

<svg
   xmlns:dc="http://purl.org/dc/elements/1.1/"
   xmlns:cc="http://creativecommons.org/ns#"
   xmlns:rdf="http://www.w3.org/1999/02/22-rdf-syntax-ns#"
   xmlns:svg="http://www.w3.org/2000/svg"
   xmlns="http://www.w3.org/2000/svg"
   xmlns:sodipodi="http://sodipodi.sourceforge.net/DTD/sodipodi-0.dtd"
   xmlns:inkscape="http://www.inkscape.org/namespaces/inkscape"
   version="1.1"
   id="svg2"
   xml:space="preserve"
   width="70.464798"
   height="54.666668"
   viewBox="0 0 70.464798 54.666668"
   sodipodi:docname="share.svg"
   inkscape:version="0.92.1 r"><metadata
     id="metadata8"><rdf:RDF><cc:Work
         rdf:about=""><dc:format>image/svg+xml</dc:format><dc:type
           rdf:resource="http://purl.org/dc/dcmitype/StillImage" /><dc:title></dc:title></cc:Work></rdf:RDF></metadata><defs
     id="defs6"><clipPath
       clipPathUnits="userSpaceOnUse"
       id="clipPath18"><path
         d="M 0,41 H 52.849 V 0 H 0 Z"
         id="path16"
         inkscape:connector-curvature="0" /></clipPath><clipPath
       clipPathUnits="userSpaceOnUse"
       id="clipPath26"><path
         d="m 15.552,85.572 c 0,6.638 9.213,7.934 11.34,2.094 0.079,-0.218 0.336,-0.215 0.416,0.003 2.126,5.837 11.338,4.539 11.338,-2.097 0,-4.55 -7.836,-11.293 -11.547,-13.929 -3.714,2.636 -11.547,9.379 -11.547,13.929"
         id="path24"
         inkscape:connector-curvature="0"
         style="clip-rule:evenodd" /></clipPath><clipPath
       clipPathUnits="userSpaceOnUse"
       id="clipPath36"><path
         d="M 31.744,30.676 C 26.088,29.212 21.873,23.534 21.873,16.753 v 0 c 0,-1.375 0.174,-2.704 0.497,-3.963 v 0 c -0.009,0.173 -0.015,0.346 -0.015,0.522 v 0 c 0,5.113 3.922,9.459 9.389,11.055 v 0 -2.634 l 8.022,6.388 v 0.062 l -8.022,5.014 z"
         id="path34"
         inkscape:connector-curvature="0" /></clipPath></defs><sodipodi:namedview
     pagecolor="#ffffff"
     bordercolor="#666666"
     borderopacity="1"
     objecttolerance="10"
     gridtolerance="10"
     guidetolerance="10"
     inkscape:pageopacity="0"
     inkscape:pageshadow="2"
     inkscape:window-width="745"
     inkscape:window-height="480"
     id="namedview4"
     showgrid="false"
     inkscape:zoom="4.3170731"
     inkscape:cx="35.232399"
     inkscape:cy="27.333334"
     inkscape:window-x="331"
     inkscape:window-y="104"
     inkscape:window-maximized="0"
     inkscape:current-layer="g10" /><g
     id="g10"
     inkscape:groupmode="layer"
     inkscape:label="icones"
     transform="matrix(1.3333333,0,0,-1.3333333,0,54.666667)"><g
       id="g12"><g
         id="g14"
         clip-path="url(#clipPath18)"><g
           id="g20"><g
             id="g22"
             clip-path="url(#clipPath26)"><path
               d="m -286.448,-861.615 h 375 v 1217 h -375 z"
               style="fill:#ffffff;fill-opacity:1;fill-rule:nonzero;stroke:none"
               id="path28"
               inkscape:connector-curvature="0" /></g></g></g></g><g
       id="g30"><g
         id="g32"
         clip-path="url(#clipPath36)"><path
           d="M 16.873,38.196 H 44.766 V 7.79 H 16.873 Z"
           style="fill:#d3d0d0;fill-opacity:1;fill-rule:nonzero;stroke:none"
           id="path38"
           inkscape:connector-curvature="0" /></g></g><g
       id="g40"
       transform="translate(13.0842,32.2335)"><path
         d="m 0,0 v -21.995 h 22.24 v 7.903 h -1.806 v -6.046 H 1.863 V -1.856 H 14.435 V 0 Z"
         style="fill:#d3d0d0;fill-opacity:1;fill-rule:nonzero;stroke:none"
         id="path42"
         inkscape:connector-curvature="0" /></g></g></svg>