<svg id="Layer_1" data-name="Layer 1" xmlns="http://www.w3.org/2000/svg" xmlns:xlink="http://www.w3.org/1999/xlink" viewBox="0 0 52.85 41"><defs><style>.cls-1,.cls-2,.cls-3{fill:none;}.cls-1,.cls-4{clip-rule:evenodd;}.cls-17,.cls-3{fill-rule:evenodd;}.cls-17,.cls-19,.cls-25,.cls-4{fill:#fff;}.cls-5{clip-path:url(#clip-path);}.cls-6{clip-path:url(#clip-path-2);}.cls-7{clip-path:url(#clip-path-3);}.cls-8{clip-path:url(#clip-path-4);}.cls-9{clip-path:url(#clip-path-5);}.cls-10{clip-path:url(#clip-path-6);}.cls-11{clip-path:url(#clip-path-7);}.cls-12{clip-path:url(#clip-path-8);}.cls-13{clip-path:url(#clip-path-9);}.cls-14{clip-path:url(#clip-path-10);}.cls-15{clip-path:url(#clip-path-15);}.cls-16{clip-path:url(#clip-path-16);}.cls-18{clip-path:url(#clip-path-17);}.cls-20{clip-path:url(#clip-path-18);}.cls-21{clip-path:url(#clip-path-20);}.cls-22{clip-path:url(#clip-path-21);}.cls-23{clip-path:url(#clip-path-22);}.cls-24{clip-path:url(#clip-path-23);}.cls-25{stroke:#fff;stroke-miterlimit:10;}.cls-26{clip-path:url(#clip-path-24);}.cls-27{clip-path:url(#clip-path-25);}</style><clipPath id="clip-path"><path class="cls-1" d="M-253.66-128.89v-1.39a1.71,1.71,0,0,0,1.59-1.1l5.11-13.47a3.54,3.54,0,0,1,3.29-2.27h2.3v1.39h-2.3a2.14,2.14,0,0,0-2,1.37l-5.11,13.47a3.11,3.11,0,0,1-2.89,2"/></clipPath><clipPath id="clip-path-2"><path class="cls-1" d="M-250.45-135.77l-3.16-8.33a2.54,2.54,0,0,0-2.36-1.63h-1.57v-1.39H-256a3.94,3.94,0,0,1,3.66,2.53l3.16,8.33Z"/></clipPath><clipPath id="clip-path-3"><rect class="cls-2" x="-246.72" y="-147.13" width="18.55" height="18.6"/></clipPath><clipPath id="clip-path-4"><path class="cls-1" d="M-218-129.76a9,9,0,0,1-8.93-8.94v-7.73h1.39v7.73a7.55,7.55,0,0,0,7.54,7.55,7.55,7.55,0,0,0,7.54-7.55v-7.73h1.39v7.73a9,9,0,0,1-8.93,8.94"/></clipPath><clipPath id="clip-path-5"><path class="cls-1" d="M-231.37-108.85v-1.39a6.7,6.7,0,0,0,3.82-1.19,6.72,6.72,0,0,0,2.47-3.16l3.28-8.63a6,6,0,0,1,5.58-3.86h3.33v1.39h-3.33a4.61,4.61,0,0,0-4.29,3l-3.28,8.63a8.11,8.11,0,0,1-3,3.81,8.08,8.08,0,0,1-4.61,1.44"/></clipPath><clipPath id="clip-path-6"><rect class="cls-2" x="-257.55" y="-147.13" width="54.87" height="38.32"/></clipPath><clipPath id="clip-path-7"><rect class="cls-2" x="-167.67" y="-52.53" width="22.52" height="21.53"/></clipPath><clipPath id="clip-path-8"><polygon class="cls-1" points="-156.46 -49.13 -157.41 -47.75 -157.41 -41.37 -155.41 -41.37 -155.41 -47.75 -156.46 -49.13"/></clipPath><clipPath id="clip-path-9"><polygon class="cls-1" points="-161.71 -38.53 -160.23 -38.3 -155.53 -41 -156.53 -42.73 -161.22 -40.02 -161.71 -38.53"/></clipPath><clipPath id="clip-path-10"><path class="cls-1" d="M-155.05-41.77a1.35,1.35,0,0,1-1.36,1.35,1.35,1.35,0,0,1-1.36-1.35,1.35,1.35,0,0,1,1.36-1.35,1.35,1.35,0,0,1,1.36,1.35"/></clipPath><clipPath id="clip-path-15"><path class="cls-1" d="M-99.71-33.47h-9.84a.62.62,0,0,0-.62.62.62.62,0,0,0,.62.62h9.84a.62.62,0,0,0,.61-.62A.62.62,0,0,0-99.71-33.47Zm7.38-12.47h-17.22a.62.62,0,0,0-.62.63.62.62,0,0,0,.62.62h17.22a.62.62,0,0,0,.62-.62A.62.62,0,0,0-92.33-45.95Zm-3.08,6.24h-14.14a.62.62,0,0,0-.62.62.62.62,0,0,0,.62.63h14.14a.62.62,0,0,0,.62-.62A.62.62,0,0,0-95.41-39.71Zm-14.14-11.22h17.22a.62.62,0,0,0,.62-.62.62.62,0,0,0-.62-.62h-17.22a.62.62,0,0,0-.62.62A.62.62,0,0,0-109.55-50.93Z"/></clipPath><clipPath id="clip-path-16"><rect class="cls-2" x="-100.24" y="-47.29" width="14.05" height="15.94"/></clipPath><clipPath id="clip-path-17"><path class="cls-4" d="M-49.45-44.57c0-6.64,9.21-7.93,11.34-2.09a.21.21,0,0,0,.42,0c2.13-5.84,11.34-4.54,11.34,2.1,0,4.55-7.84,11.29-11.55,13.93C-41.62-33.28-49.45-40-49.45-44.57Z"/></clipPath><clipPath id="clip-path-18"><path class="cls-1" d="M60.37-120.52A12.65,12.65,0,0,1,48.15-133a12.65,12.65,0,0,1,12.22-12.49H90.93A12.65,12.65,0,0,1,103.15-133a12.65,12.65,0,0,1-12.22,12.49H60.37Z"/></clipPath><clipPath id="clip-path-20"><ellipse class="cls-2" cx="89.98" cy="-133" rx="12.83" ry="12.5"/></clipPath><clipPath id="clip-path-21"><rect class="cls-2" x="-168.01" y="7.02" width="24.97" height="26.95"/></clipPath><clipPath id="clip-path-22"><rect class="cls-2" x="-43.13" y="7.8" width="17.89" height="20.41"/></clipPath><clipPath id="clip-path-23"><rect class="cls-2" x="-51.92" y="8.77" width="22.24" height="22"/></clipPath><clipPath id="clip-path-24"><rect class="cls-2" x="151.46" y="-68.45" width="42.31" height="42.31"/></clipPath><clipPath id="clip-path-25"><path class="cls-1" d="M106.36-24.56a28,28,0,0,1-28-28,28,28,0,0,1,28-28,28,28,0,0,1,28,28A28,28,0,0,1,106.36-24.56Zm0-54.74A26.77,26.77,0,0,0,79.62-52.56a26.77,26.77,0,0,0,26.74,26.74A26.77,26.77,0,0,0,133.1-52.56,26.77,26.77,0,0,0,106.36-79.3Z"/></clipPath></defs><title>icones</title><path class="cls-17" d="M-49.45-44.57c0-6.64,9.21-7.93,11.34-2.09a.21.21,0,0,0,.42,0c2.13-5.84,11.34-4.54,11.34,2.1,0,4.55-7.84,11.29-11.55,13.93C-41.62-33.28-49.45-40-49.45-44.57Z"/><g class="cls-18"><rect class="cls-19" x="-351.45" y="-314.38" width="375" height="1217"/></g><path class="cls-25" d="M23.58,21.34,34.42,10.49a.78.78,0,0,1,1.09,0l3,3a.78.78,0,0,1,0,1.1L24.13,29l0,0,0,0h0l0,0h0l0,0h-.7l-.07,0h0l0,0L23,29,14.3,20.31a.78.78,0,0,1,0-1.09l3-3a.78.78,0,0,1,1.1,0l5.15,5.15"/></svg>