<svg id="Capa_1" data-name="Capa 1" xmlns="http://www.w3.org/2000/svg" viewBox="0 0 67.65 52.14"><defs><style>.cls-1{fill:#818181;}</style></defs><title>man-user4</title><path class="cls-1" d="M33.83,25.66c4.17,0,7.55-4.11,7.55-9.18s-1.11-9.18-7.55-9.18-7.55,4.11-7.55,9.18S29.65,25.66,33.83,25.66Z"/><path class="cls-1" d="M19.56,39.67c0-.31,0-.09,0,0Z"/><path class="cls-1" d="M48.1,39.91c0-.08,0-.59,0,0Z"/><path class="cls-1" d="M48.08,39.3C47.94,30.47,46.79,28,38,26.36a5.29,5.29,0,0,1-4.14,1.58,5.29,5.29,0,0,1-4.14-1.58C21,27.94,19.74,30.42,19.58,39c0,.7,0,.74,0,.66,0,.15,0,.44,0,.93,0,0,2.1,4.23,14.27,4.23S48.09,40.6,48.09,40.6c0-.32,0-.54,0-.69A5.68,5.68,0,0,1,48.08,39.3Z"/></svg>