<?xml version="1.0" encoding="UTF-8" standalone="no"?>
<!-- Created with Inkscape (http://www.inkscape.org/) -->

<svg
   xmlns:dc="http://purl.org/dc/elements/1.1/"
   xmlns:cc="http://creativecommons.org/ns#"
   xmlns:rdf="http://www.w3.org/1999/02/22-rdf-syntax-ns#"
   xmlns:svg="http://www.w3.org/2000/svg"
   xmlns="http://www.w3.org/2000/svg"
   xmlns:sodipodi="http://sodipodi.sourceforge.net/DTD/sodipodi-0.dtd"
   xmlns:inkscape="http://www.inkscape.org/namespaces/inkscape"
   version="1.1"
   id="svg4222"
   xml:space="preserve"
   width="66.666664"
   height="52.006535"
   viewBox="0 0 66.666664 52.006535"
   sodipodi:docname="icones-06_off.svg"
   inkscape:version="0.92+devel unknown"><metadata
     id="metadata4228"><rdf:RDF><cc:Work
         rdf:about=""><dc:format>image/svg+xml</dc:format><dc:type
           rdf:resource="http://purl.org/dc/dcmitype/StillImage" /><dc:title></dc:title></cc:Work></rdf:RDF></metadata><defs
     id="defs4226"><clipPath
       clipPathUnits="userSpaceOnUse"
       id="clipPath4240"><path
         d="m 32.589,13.865 c -0.033,-0.496 0.2,-0.993 0.412,-0.829 v 0 c 0.411,0.346 0.501,1.189 0.544,1.688 v 0 c -0.027,0.002 -0.054,0.003 -0.08,0.003 v 0 c -0.618,0 -0.846,-0.431 -0.876,-0.862"
         id="path4238"
         inkscape:connector-curvature="0" /></clipPath><clipPath
       clipPathUnits="userSpaceOnUse"
       id="clipPath4250"><path
         d="m 33.541,14.724 c 0.006,-10e-4 0.019,-10e-4 0.019,0 v 0 c -0.01,0 -0.015,0 -0.019,0 m 0,0 c -0.005,0 -0.003,0 0,0"
         id="path4248"
         inkscape:connector-curvature="0" /></clipPath><clipPath
       clipPathUnits="userSpaceOnUse"
       id="clipPath4260"><path
         d="m 12.029,19.845 c 0,-7.186 5.957,-13.029 13.28,-13.029 v 0 c 7.321,0 13.278,5.843 13.278,13.029 v 0 c 0,7.184 -5.957,13.029 -13.278,13.029 v 0 c -7.323,0 -13.28,-5.845 -13.28,-13.029 m 5.778,9.404 c 0.028,0.02 0.054,0.041 0.08,0.063 v 0 c 0.025,0.015 0.051,0.035 0.074,0.052 v 0 c 2.024,1.489 4.535,2.372 7.253,2.372 v 0 c 2.777,0 5.341,-0.922 7.387,-2.471 v 0 c 0.035,-0.028 0.071,-0.053 0.106,-0.082 v 0 c 0.07,-0.053 0.14,-0.109 0.207,-0.164 v 0 c 0.002,0 0.002,-0.002 0.003,-0.002 v 0 c 0.498,-0.404 0.964,-0.845 1.391,-1.322 v 0 c -0.426,-0.227 -0.815,-0.383 -0.93,-1.084 v 0 c -1.273,0.281 -0.911,0.89 -0.06,1.5 v 0 c -0.778,0.303 -1.779,-0.9 -0.879,-1.399 v 0 c 1.133,-0.628 -1.104,-0.009 -0.975,-0.922 v 0 c -0.601,0.468 -2.022,0.641 -2.638,0.061 v 0 c -0.786,-0.744 -0.31,-2.215 -1.211,-2.852 v 0 c 0.004,0.343 0.019,1.037 -0.402,1.198 v 0 c -0.662,0.252 -0.6,-0.758 -1.041,-1.076 v 0 c 0.185,-0.215 0.743,-0.355 1.019,-0.355 v 0 C 27.03,22.622 27.002,22.433 27.088,22.232 v 0 c 0.138,-0.321 -1.681,-1.137 -0.355,-1.529 v 0 c -1.411,-0.451 -1.907,-2.981 -0.581,-3.744 v 0 c 0.594,-0.342 1.222,-0.209 1.856,-0.364 v 0 c 0.992,-0.24 1.065,-1.641 1.119,-2.437 v 0 c 0.121,-1.781 0.596,-3.432 2.101,-1.428 v 0 c 0.399,0.527 0.498,1.09 0.801,1.67 v 0 c 0.551,1.062 1.535,2.08 1.64,3.317 v 0 c -0.343,-0.097 -0.683,-0.091 -1.021,0.018 v 0 c 1.059,0.36 1.547,0.651 1.547,1.792 v 0 c 1.353,0 2.281,-1.036 2.879,-2.125 v 0 C 35.924,12.013 31.043,7.954 25.214,7.954 v 0 c -1.846,0 -3.598,0.407 -5.166,1.135 v 0 c -0.586,1.405 2.076,3.729 2.629,4.674 v 0 c 1.033,1.764 -1.21,2.76 -2.525,3.639 v 0 c -1.027,0.685 -1.468,0.228 -2.476,0.021 v 0 c -0.812,-0.165 -0.372,1.419 -0.754,1.764 v 0 c 0.032,-0.03 -0.706,-0.265 -0.835,-0.227 v 0 c -0.419,0.134 -0.405,0.701 -0.179,0.998 v 0 c 0.539,0.705 0.931,0.349 1.303,-0.007 v 0 c 0.232,-0.222 0.457,-0.444 0.706,-0.408 v 0 c 0.126,0.658 1.024,1.25 1.024,1.888 v 0 c 0.45,0.402 1.71,0.555 1.94,1.094 v 0 C 20.85,22.532 20.4,22.65 20.435,22.756 v 0 c 0.049,0.198 0.647,0.175 0.836,0.243 v 0 c -0.21,-0.405 -0.023,-0.773 0.536,-0.435 v 0 c -0.444,0.537 -0.065,2.437 -1.225,2.074 v 0 c 0.074,0.172 0.121,0.383 0.037,0.561 v 0 c 0.463,-0.083 0.634,0.334 0.528,0.716 v 0 C 21.311,25.507 21.5,25.5 21.715,25.889 v 0 c -0.24,0.367 -0.378,0.786 -0.604,1.161 v 0 c -0.229,0.383 -0.576,0.672 -1.02,0.778 v 0 c 0.183,0.029 0.368,0.06 0.541,0.132 v 0 c -0.093,0.17 -0.237,0.26 -0.418,0.315 v 0 c 0.563,0.094 1.191,0.556 1.747,0.556 v 0 c -0.033,-0.017 -0.584,-0.372 -0.394,-0.542 v 0 c -0.181,-0.407 -0.011,-0.39 0.186,-0.373 v 0 c 0.138,0.013 0.289,0.025 0.34,-0.11 v 0 c 0.389,-1.026 -0.038,-2.705 1.049,-3.332 v 0 c 0.405,0.695 1.226,0.939 1.864,1.361 v 0 c 0.719,0.477 0.762,1.069 0.892,1.845 v 0 c 0.045,0.332 0.248,0.791 0.59,0.927 v 0 c -1.364,0.441 -3.055,0.971 -4.502,0.971 v 0 c -0.542,0.232 -1.072,0.11 -1.597,-0.012 v 0 C 19.866,29.444 19.347,29.323 18.83,29.554 v 0 c -0.016,-0.427 0.487,-0.949 0.652,-1.33 v 0 c -0.125,0.008 -0.771,0.961 -0.865,0.543 v 0 c 0.031,0.168 -0.376,0.36 -0.81,0.482 m -4.711,-9.404 c 0,1.313 0.219,2.579 0.621,3.76 v 0 c 0.021,0.062 0.045,0.127 0.067,0.189 v 0 c -0.071,-1.478 -0.291,-2.886 0.49,-4.323 v 0 c 0.168,0.06 0.221,0.216 0.146,0.36 v 0 c 0.684,-0.882 1.59,-2.043 2.672,-2.505 v 0 c 0.113,-0.049 0.771,-0.129 0.744,-0.067 v 0 c 0.346,-0.73 -0.687,-1.305 -0.213,-2.036 v 0 C 18.469,13.918 18.933,13.57 19,11.998 v 0 c 0.032,-0.457 0.053,-0.911 0.107,-1.367 v 0 c 0.024,-0.22 0.08,-0.699 0.204,-1.168 v 0 c -3.706,2.034 -6.215,5.927 -6.215,10.382"
         id="path4258"
         inkscape:connector-curvature="0" /></clipPath><clipPath
       clipPathUnits="userSpaceOnUse"
       id="clipPath4270"><path
         d="m 39.105,17.049 c -0.015,0.013 -0.027,0.025 -0.041,0.037 v 0 c -0.027,-0.082 0.343,-0.296 0.041,-0.037"
         id="path4268"
         inkscape:connector-curvature="0" /></clipPath><clipPath
       clipPathUnits="userSpaceOnUse"
       id="clipPath4280"><path
         d="M 0,39.005 H 50 V 0 H 0 Z"
         id="path4278"
         inkscape:connector-curvature="0" /></clipPath><clipPath
       clipPathUnits="userSpaceOnUse"
       id="clipPath4288"><path
         d="m 73.203,-28.926 c 0,6.639 9.213,7.935 11.339,2.094 0.08,-0.218 0.336,-0.215 0.416,0.004 2.126,5.837 11.339,4.539 11.339,-2.098 0,-4.55 -7.837,-11.293 -11.547,-13.928 -3.714,2.635 -11.547,9.378 -11.547,13.928"
         clip-rule="evenodd"
         id="path4286"
         inkscape:connector-curvature="0" /></clipPath><clipPath
       clipPathUnits="userSpaceOnUse"
       id="clipPath4298"><path
         d="m 183.023,47.019 c -6.805,0.31 -12.223,5.782 -12.223,12.486 0,6.704 5.418,12.176 12.223,12.486 v 0.014 h 30.555 v -0.014 c 6.804,-0.31 12.222,-5.782 12.222,-12.486 0,-6.704 -5.418,-12.176 -12.222,-12.486 v -0.014 h -30.555 z"
         clip-rule="evenodd"
         id="path4296"
         inkscape:connector-curvature="0" /></clipPath><clipPath
       clipPathUnits="userSpaceOnUse"
       id="clipPath4306"><path
         d="m -114.2,-670.996 h 375 v 1311 h -375 z"
         id="path4304"
         inkscape:connector-curvature="0" /></clipPath></defs><sodipodi:namedview
     pagecolor="#ffffff"
     bordercolor="#666666"
     inkscape:document-rotation="0"
     borderopacity="1"
     objecttolerance="10"
     gridtolerance="10"
     guidetolerance="10"
     inkscape:pageopacity="0"
     inkscape:pageshadow="2"
     inkscape:window-width="1440"
     inkscape:window-height="803"
     id="namedview4224"
     showgrid="false"
     inkscape:zoom="10.402539"
     inkscape:cx="33.333332"
     inkscape:cy="26.003267"
     inkscape:window-x="0"
     inkscape:window-y="27"
     inkscape:window-maximized="1"
     inkscape:current-layer="g4230" /><g
     id="g4230"
     inkscape:groupmode="layer"
     inkscape:label="icones"
     transform="matrix(1.3333333,0,0,-1.3333333,0,52.006533)"><g
       id="g4234"><g
         id="g4236"
         clip-path="url(#clipPath4240)"><path
           d="M 27.588,19.726 H 38.545 V 8.005 H 27.588 Z"
           style="fill:#0b090c;fill-opacity:1;fill-rule:nonzero;stroke:none"
           id="path4242"
           inkscape:connector-curvature="0" /></g></g><g
       id="g4244"><g
         id="g4246"
         clip-path="url(#clipPath4250)"><path
           d="M 28.537,19.724 H 38.56 v -10 H 28.537 Z"
           style="fill:#0b090c;fill-opacity:1;fill-rule:nonzero;stroke:none"
           id="path4252"
           inkscape:connector-curvature="0" /></g></g><g
       id="g4254"
       style="fill:#808080"><g
         id="g4256"
         clip-path="url(#clipPath4260)"
         style="fill:#808080"><path
           d="M 7.029,37.875 H 43.587 V 1.816 H 7.029 Z"
           style="fill:#808080;fill-opacity:1;fill-rule:nonzero;stroke:none"
           id="path4262"
           inkscape:connector-curvature="0" /></g></g><g
       id="g4264"><g
         id="g4266"
         clip-path="url(#clipPath4270)"><path
           d="M 34.062,22.085 H 44.224 V 11.925 H 34.062 Z"
           style="fill:#0b090c;fill-opacity:1;fill-rule:nonzero;stroke:none"
           id="path4272"
           inkscape:connector-curvature="0" /></g></g><g
       id="g4274"><g
         id="g4276"
         clip-path="url(#clipPath4280)"><g
           id="g4282"><g
             id="g4284"
             clip-path="url(#clipPath4288)"><path
               d="m -228.797,-976.113 h 375 v 1217 h -375 z"
               style="fill:#ffffff;fill-opacity:1;fill-rule:nonzero;stroke:none"
               id="path4290"
               inkscape:connector-curvature="0" /></g></g><g
           id="g4292"><g
             id="g4294"
             clip-path="url(#clipPath4298)"><g
               id="g4300"><g
                 id="g4302"
                 clip-path="url(#clipPath4306)"><path
                   d="m 2.8,82.005 h 79 v -50 H 2.8 Z M 25.022,47.019 C 18.219,47.329 12.8,52.801 12.8,59.505 c 0,6.704 5.419,12.176 12.222,12.486 v 0.014 H 55.578 V 71.991 C 62.382,71.681 67.8,66.209 67.8,59.505 67.8,52.801 62.382,47.329 55.578,47.019 V 47.005 H 25.022 Z"
                   style="fill:#ffffff;fill-opacity:1;fill-rule:evenodd;stroke:none"
                   id="path4308"
                   inkscape:connector-curvature="0" /></g></g></g></g></g></g></g></svg>