<svg id="Layer_1" data-name="Layer 1" xmlns="http://www.w3.org/2000/svg" xmlns:xlink="http://www.w3.org/1999/xlink" viewBox="0 0 50 41"><defs><style>.cls-1,.cls-2,.cls-3{fill:none;}.cls-1,.cls-4{clip-rule:evenodd;}.cls-17,.cls-3{fill-rule:evenodd;}.cls-17,.cls-19,.cls-23,.cls-4{fill:#fff;}.cls-5{clip-path:url(#clip-path);}.cls-6{clip-path:url(#clip-path-2);}.cls-7{clip-path:url(#clip-path-3);}.cls-8{clip-path:url(#clip-path-4);}.cls-9{clip-path:url(#clip-path-5);}.cls-10{clip-path:url(#clip-path-6);}.cls-11{clip-path:url(#clip-path-7);}.cls-12{clip-path:url(#clip-path-8);}.cls-13{clip-path:url(#clip-path-9);}.cls-14{clip-path:url(#clip-path-10);}.cls-15{clip-path:url(#clip-path-15);}.cls-16{clip-path:url(#clip-path-16);}.cls-18{clip-path:url(#clip-path-17);}.cls-20{clip-path:url(#clip-path-18);}.cls-21{clip-path:url(#clip-path-19);}.cls-22{clip-path:url(#clip-path-21);}.cls-23{stroke:#fff;stroke-miterlimit:10;}.cls-24{clip-path:url(#clip-path-22);}.cls-25{clip-path:url(#clip-path-23);}.cls-26{clip-path:url(#clip-path-24);}</style><clipPath id="clip-path"><path class="cls-1" d="M-15.8-128.89v-1.39a1.71,1.71,0,0,0,1.59-1.1l5.11-13.47a3.54,3.54,0,0,1,3.29-2.27h2.3v1.39h-2.3a2.14,2.14,0,0,0-2,1.37l-5.11,13.47a3.11,3.11,0,0,1-2.89,2"/></clipPath><clipPath id="clip-path-2"><path class="cls-1" d="M-12.6-135.77l-3.16-8.33a2.54,2.54,0,0,0-2.36-1.63H-19.7v-1.39h1.57a3.94,3.94,0,0,1,3.66,2.53l3.16,8.33Z"/></clipPath><clipPath id="clip-path-3"><rect class="cls-2" x="-8.87" y="-147.13" width="18.55" height="18.6"/></clipPath><clipPath id="clip-path-4"><path class="cls-1" d="M19.85-129.76a9,9,0,0,1-8.93-8.94v-7.73h1.39v7.73a7.55,7.55,0,0,0,7.54,7.55,7.55,7.55,0,0,0,7.54-7.55v-7.73h1.39v7.73a9,9,0,0,1-8.93,8.94"/></clipPath><clipPath id="clip-path-5"><path class="cls-1" d="M6.48-108.85v-1.39a6.7,6.7,0,0,0,3.82-1.19,6.72,6.72,0,0,0,2.47-3.16L16-123.22a6,6,0,0,1,5.58-3.86H25v1.39H21.63a4.61,4.61,0,0,0-4.29,3l-3.28,8.63a8.11,8.11,0,0,1-3,3.81,8.08,8.08,0,0,1-4.61,1.44"/></clipPath><clipPath id="clip-path-6"><rect class="cls-2" x="-19.7" y="-147.13" width="54.87" height="38.32"/></clipPath><clipPath id="clip-path-7"><rect class="cls-2" x="70.18" y="-52.53" width="22.52" height="21.53"/></clipPath><clipPath id="clip-path-8"><polygon class="cls-1" points="81.39 -49.13 80.44 -47.75 80.44 -41.37 82.44 -41.37 82.44 -47.75 81.39 -49.13"/></clipPath><clipPath id="clip-path-9"><polygon class="cls-1" points="76.14 -38.53 77.63 -38.3 82.32 -41 81.32 -42.73 76.63 -40.02 76.14 -38.53"/></clipPath><clipPath id="clip-path-10"><path class="cls-1" d="M82.8-41.77a1.35,1.35,0,0,1-1.36,1.35,1.35,1.35,0,0,1-1.36-1.35,1.35,1.35,0,0,1,1.36-1.35,1.35,1.35,0,0,1,1.36,1.35"/></clipPath><clipPath id="clip-path-15"><path class="cls-1" d="M138.14-33.47H128.3a.62.62,0,0,0-.62.62.62.62,0,0,0,.62.62h9.84a.62.62,0,0,0,.61-.62A.62.62,0,0,0,138.14-33.47Zm7.38-12.47H128.3a.62.62,0,0,0-.62.63.62.62,0,0,0,.62.62h17.22a.62.62,0,0,0,.62-.62A.62.62,0,0,0,145.52-45.95Zm-3.08,6.24H128.3a.62.62,0,0,0-.62.62.62.62,0,0,0,.62.63h14.14a.62.62,0,0,0,.62-.62A.62.62,0,0,0,142.44-39.71ZM128.3-50.93h17.22a.62.62,0,0,0,.62-.62.62.62,0,0,0-.62-.62H128.3a.62.62,0,0,0-.62.62A.62.62,0,0,0,128.3-50.93Z"/></clipPath><clipPath id="clip-path-16"><rect class="cls-2" x="137.62" y="-47.29" width="14.05" height="15.94"/></clipPath><clipPath id="clip-path-17"><path class="cls-4" d="M188.4-44.57c0-6.64,9.21-7.93,11.34-2.09a.21.21,0,0,0,.42,0c2.13-5.84,11.34-4.54,11.34,2.1,0,4.55-7.84,11.29-11.55,13.93C196.24-33.28,188.4-40,188.4-44.57Z"/></clipPath><clipPath id="clip-path-18"><path class="cls-1" d="M22-39.8,32.88-50.65a.78.78,0,0,1,1.09,0l3,3a.78.78,0,0,1,0,1.1L22.58-32.1l0,0,0,0h0l0,0h0l0,0h-.7l-.07,0h0l0,0-.14-.11-8.73-8.73a.78.78,0,0,1,0-1.09l3-3a.78.78,0,0,1,1.1,0L22-39.8"/></clipPath><clipPath id="clip-path-19"><path class="cls-1" d="M298.22-120.52A12.65,12.65,0,0,1,286-133a12.65,12.65,0,0,1,12.22-12.49h30.55A12.65,12.65,0,0,1,341-133a12.65,12.65,0,0,1-12.22,12.49H298.22Z"/></clipPath><clipPath id="clip-path-21"><ellipse class="cls-2" cx="327.83" cy="-133" rx="12.83" ry="12.5"/></clipPath><clipPath id="clip-path-22"><rect class="cls-2" x="69.84" y="7.02" width="24.97" height="26.95"/></clipPath><clipPath id="clip-path-23"><rect class="cls-2" x="194.72" y="7.8" width="17.89" height="20.41"/></clipPath><clipPath id="clip-path-24"><rect class="cls-2" x="185.93" y="8.77" width="22.24" height="22"/></clipPath></defs><title>curtir-2</title><path class="cls-17" d="M188.4-44.57c0-6.64,9.21-7.93,11.34-2.09a.21.21,0,0,0,.42,0c2.13-5.84,11.34-4.54,11.34,2.1,0,4.55-7.84,11.29-11.55,13.93C196.24-33.28,188.4-40,188.4-44.57Z"/><g class="cls-18"><rect class="cls-19" x="-113.6" y="-314.38" width="375" height="1217"/></g><path class="cls-23" d="M29.31,16.33c.43-2.05,1.75-10.79-3-10.79C24,5.54,25,7.75,24.68,10.33a7,7,0,0,1-1.17,3A17.93,17.93,0,0,1,21.72,16a3.56,3.56,0,0,1-.8.56c-.31.17-1.44.54-1.44.92V31.37a.49.49,0,0,0,.42.49c1.59.22,7.22,1,8.79,1.1,2,.15,6,0,6,0a2.29,2.29,0,0,0,2.2-1.61,2,2,0,0,0-.54-2.09c2,0,2.71-2.71,1.43-4,2.05,0,2.77-3.08,1.25-4.26,2.71,0,2.88-4.67.16-4.67Z"/><path class="cls-23" d="M9.4,16.21a.81.81,0,0,0-.8.81V32a.81.81,0,0,0,.8.81h6.68a.81.81,0,0,0,.8-.81V17a.81.81,0,0,0-.8-.81Z"/></svg>