<svg id="Layer_1" data-name="Layer 1" xmlns="http://www.w3.org/2000/svg" xmlns:xlink="http://www.w3.org/1999/xlink" viewBox="0 0 50 39"><defs><style>.cls-1,.cls-2,.cls-22,.cls-3{fill:none;}.cls-1,.cls-4{clip-rule:evenodd;}.cls-29,.cls-3{fill-rule:evenodd;}.cls-29,.cls-31,.cls-4{fill:#fff;}.cls-5{clip-path:url(#clip-path);}.cls-6{clip-path:url(#clip-path-2);}.cls-7{clip-path:url(#clip-path-3);}.cls-8{clip-path:url(#clip-path-4);}.cls-9{clip-path:url(#clip-path-5);}.cls-10{clip-path:url(#clip-path-6);}.cls-11{clip-path:url(#clip-path-7);}.cls-12{clip-path:url(#clip-path-8);}.cls-13{clip-path:url(#clip-path-9);}.cls-14{clip-path:url(#clip-path-10);}.cls-15{clip-path:url(#clip-path-11);}.cls-16{clip-path:url(#clip-path-12);}.cls-17{clip-path:url(#clip-path-13);}.cls-18{clip-path:url(#clip-path-14);}.cls-19{fill:#0b090c;}.cls-20{clip-path:url(#clip-path-15);}.cls-21{clip-path:url(#clip-path-17);}.cls-22{stroke:#fff;stroke-miterlimit:10;}.cls-23{clip-path:url(#clip-path-19);}.cls-24{clip-path:url(#clip-path-20);}.cls-25{clip-path:url(#clip-path-21);}.cls-26{clip-path:url(#clip-path-22);}.cls-27{clip-path:url(#clip-path-27);}.cls-28{clip-path:url(#clip-path-28);}.cls-30{clip-path:url(#clip-path-29);}.cls-32{clip-path:url(#clip-path-30);}.cls-33{clip-path:url(#clip-path-32);}.cls-34{clip-path:url(#clip-path-33);}.cls-35{clip-path:url(#clip-path-34);}.cls-36{clip-path:url(#clip-path-35);}.cls-37{clip-path:url(#clip-path-36);}.cls-38{clip-path:url(#clip-path-37);}.cls-39{clip-path:url(#clip-path-38);}</style><clipPath id="clip-path"><path class="cls-1" d="M-191-16.39v-1.39a1.71,1.71,0,0,0,1.59-1.1l5.11-13.47A3.54,3.54,0,0,1-181-34.62h2.3v1.39H-181a2.14,2.14,0,0,0-2,1.37l-5.11,13.47a3.11,3.11,0,0,1-2.89,2"/></clipPath><clipPath id="clip-path-2"><path class="cls-1" d="M-187.8-23.27-191-31.6a2.54,2.54,0,0,0-2.36-1.63h-1.57v-1.39h1.57a3.94,3.94,0,0,1,3.66,2.53l3.16,8.33Z"/></clipPath><clipPath id="clip-path-3"><rect class="cls-2" x="-184.07" y="-34.62" width="18.55" height="18.6"/></clipPath><clipPath id="clip-path-4"><path class="cls-1" d="M-155.35-17.26a9,9,0,0,1-8.93-8.94v-7.73h1.39v7.73a7.55,7.55,0,0,0,7.54,7.55,7.55,7.55,0,0,0,7.54-7.55v-7.73h1.39v7.73a9,9,0,0,1-8.93,8.94"/></clipPath><clipPath id="clip-path-5"><path class="cls-1" d="M-168.72,3.66V2.26a6.7,6.7,0,0,0,3.82-1.19,6.72,6.72,0,0,0,2.47-3.16l3.28-8.63a6,6,0,0,1,5.58-3.86h3.33v1.39h-3.33a4.61,4.61,0,0,0-4.29,3l-3.28,8.63a8.11,8.11,0,0,1-3,3.81,8.08,8.08,0,0,1-4.61,1.44"/></clipPath><clipPath id="clip-path-6"><rect class="cls-2" x="-194.9" y="-34.62" width="54.87" height="38.32"/></clipPath><clipPath id="clip-path-7"><path class="cls-1" d="M-84.59-16.27h-5.83a1,1,0,0,1-1-1v-5.35h-4v5.35a1,1,0,0,1-1,1h-5.83a1.06,1.06,0,0,1-1.06-1.06V-26.1h-2.49a1.08,1.08,0,0,1-.92-.49,1.06,1.06,0,0,1,.18-1.35l12.37-11.47a1.06,1.06,0,0,1,.72-.28,1.06,1.06,0,0,1,.71.27L-90.14-37v-1.45h5.53v6.53l4.31,4a1.06,1.06,0,0,1,.18,1.35,1.07,1.07,0,0,1-.92.5h-2.49v8.77A1.06,1.06,0,0,1-84.59-16.27Zm-5.64-1.23h5.48v-9.83h3.31l-4.39-4V-37.2h-3.08v3l-4.6-4.22-12,11.08h3.32v9.83h5.48v-5.24a1.15,1.15,0,0,1,1.15-1.15h4.13a1.15,1.15,0,0,1,1.15,1.15Z"/></clipPath><clipPath id="clip-path-8"><path class="cls-1" d="M-95.46,23.24a6,6,0,0,0,6-6,6,6,0,0,0-6-6,6,6,0,0,0-6,6A6,6,0,0,0-95.46,23.24Zm6.1-.82,5.63,5.63a1,1,0,0,1,0,1.41,1,1,0,0,1-1.41,0l-5.69-5.69a8,8,0,0,1-4.62,1.47,8,8,0,0,1-8-8,8,8,0,0,1,8-8,8,8,0,0,1,8,8A8,8,0,0,1-89.36,22.42Z"/></clipPath><clipPath id="clip-path-9"><path class="cls-1" d="M-27.86-18.78H-42.14a.56.56,0,0,1-.56-.57v-1.94c0-5.07,15.41-5.07,15.41,0v1.94A.57.57,0,0,1-27.86-18.78Zm2.26-18.09A13.27,13.27,0,0,0-35-40.76a13.26,13.26,0,0,0-9.4,3.89,13.22,13.22,0,0,0-2.89,4.32,13.33,13.33,0,0,0-1,5.08A13.3,13.3,0,0,0-35-14.17a13.3,13.3,0,0,0,13.3-13.3A13.29,13.29,0,0,0-25.6-36.87ZM-35-26.22c1.89,0,4.08-2.55,4.08-5.71s.54-5.7-4.08-5.7-4.08,2.55-4.08,5.7S-36.89-26.22-35-26.22Z"/></clipPath><clipPath id="clip-path-10"><path class="cls-1" d="M-26.44,24.28c-.05,0,0,0,0,0"/></clipPath><clipPath id="clip-path-11"><polygon class="cls-1" points="-21.41 32.19 -47.97 32.19 -47.97 19.16 -47.97 6.13 -21.41 6.13 -21.41 32.19"/></clipPath><clipPath id="clip-path-12"><path class="cls-1" d="M-20.89,22l0,0c0,.08.34.29,0,0"/></clipPath><clipPath id="clip-path-13"><path class="cls-1" d="M33,26a2.71,2.71,0,0,0,.54-1.69c-1.43-.08-.95,2-.54,1.69"/></clipPath><clipPath id="clip-path-14"><rect class="cls-2" x="-240.97" y="-860.92" width="375" height="923"/></clipPath><clipPath id="clip-path-15"><path class="cls-1" d="M33.56,24.28c-.05,0,0,0,0,0"/></clipPath><clipPath id="clip-path-17"><path class="cls-1" d="M39.1,22l0,0c0,.08.34.29,0,0"/></clipPath><clipPath id="clip-path-19"><rect class="cls-2" x="-105.02" y="59.97" width="22.52" height="21.53"/></clipPath><clipPath id="clip-path-20"><polygon class="cls-1" points="-93.81 63.38 -94.76 64.75 -94.76 71.13 -92.76 71.13 -92.76 64.75 -93.81 63.38"/></clipPath><clipPath id="clip-path-21"><polygon class="cls-1" points="-99.06 73.97 -97.58 74.2 -92.88 71.5 -93.88 69.77 -98.57 72.48 -99.06 73.97"/></clipPath><clipPath id="clip-path-22"><path class="cls-1" d="M-92.4,70.74a1.35,1.35,0,0,1-1.36,1.35,1.35,1.35,0,0,1-1.36-1.35,1.35,1.35,0,0,1,1.36-1.35,1.35,1.35,0,0,1,1.36,1.35"/></clipPath><clipPath id="clip-path-27"><path class="cls-1" d="M-37.06,79H-46.9a.62.62,0,0,0-.62.62.62.62,0,0,0,.62.62h9.84a.62.62,0,0,0,.61-.62A.62.62,0,0,0-37.06,79Zm7.38-12.47H-46.9a.62.62,0,0,0-.62.63.62.62,0,0,0,.62.62h17.22a.62.62,0,0,0,.62-.62A.62.62,0,0,0-29.68,66.56Zm-3.08,6.24H-46.9a.62.62,0,0,0-.62.62.62.62,0,0,0,.62.63h14.14a.62.62,0,0,0,.62-.62A.62.62,0,0,0-32.76,72.79ZM-46.9,61.57h17.22a.62.62,0,0,0,.62-.62.62.62,0,0,0-.62-.62H-46.9a.62.62,0,0,0-.62.62A.62.62,0,0,0-46.9,61.57Z"/></clipPath><clipPath id="clip-path-28"><rect class="cls-2" x="-37.58" y="65.21" width="14.05" height="15.94"/></clipPath><clipPath id="clip-path-29"><path class="cls-4" d="M13.2,67.93c0-6.64,9.21-7.93,11.34-2.09a.21.21,0,0,0,.42,0C27.08,60,36.3,61.29,36.3,67.93c0,4.55-7.84,11.29-11.55,13.93C21,79.22,13.2,72.48,13.2,67.93Z"/></clipPath><clipPath id="clip-path-30"><path class="cls-1" d="M123-8A12.65,12.65,0,0,1,110.8-20.5,12.65,12.65,0,0,1,123-33h30.55A12.65,12.65,0,0,1,165.8-20.5,12.65,12.65,0,0,1,153.58-8H123Z"/></clipPath><clipPath id="clip-path-32"><rect class="cls-2" x="-174.2" y="-601" width="375" height="1311"/></clipPath><clipPath id="clip-path-33"><ellipse class="cls-2" cx="152.63" cy="-20.5" rx="12.83" ry="12.5"/></clipPath><clipPath id="clip-path-34"><rect class="cls-2" x="-105.36" y="119.53" width="24.97" height="26.95"/></clipPath><clipPath id="clip-path-35"><rect class="cls-2" x="19.52" y="120.31" width="17.89" height="20.41"/></clipPath><clipPath id="clip-path-36"><rect class="cls-2" x="10.73" y="121.27" width="22.24" height="22"/></clipPath><clipPath id="clip-path-37"><rect class="cls-2" x="214.11" y="44.05" width="42.31" height="42.31"/></clipPath><clipPath id="clip-path-38"><path class="cls-1" d="M169,87.95a28,28,0,1,1,28-28A28,28,0,0,1,169,87.95Zm0-54.74a26.74,26.74,0,1,0,26.74,26.74A26.77,26.77,0,0,0,169,33.21Z"/></clipPath></defs><title>icones</title><g class="cls-17"><g class="cls-18"><rect class="cls-19" x="27.59" y="19.28" width="10.96" height="11.72"/></g></g><g class="cls-20"><g class="cls-18"><rect class="cls-19" x="28.54" y="19.28" width="10.02" height="10"/></g></g><g class="cls-21"><g class="cls-18"><rect class="cls-19" x="34.06" y="16.92" width="10.16" height="10.16"/></g></g><polygon class="cls-22" points="35.39 19.5 14.61 30.03 14.61 8.98 35.39 19.5"/><path class="cls-29" d="M13.2,67.93c0-6.64,9.21-7.93,11.34-2.09a.21.21,0,0,0,.42,0C27.08,60,36.3,61.29,36.3,67.93c0,4.55-7.84,11.29-11.55,13.93C21,79.22,13.2,72.48,13.2,67.93Z"/><g class="cls-30"><rect class="cls-31" x="-288.8" y="-201.88" width="375" height="1217"/></g><g class="cls-32"><g class="cls-33"><path class="cls-29" d="M-35-8A12.65,12.65,0,0,1-47.2-20.5,12.65,12.65,0,0,1-35-33H-4.42A12.65,12.65,0,0,1,7.8-20.5,12.65,12.65,0,0,1-4.42-8H-35ZM-57.2-43h79V7h-79Z"/></g></g></svg>