<?xml version="1.0" encoding="UTF-8" standalone="no"?>
<!-- Created with Inkscape (http://www.inkscape.org/) -->

<svg
   xmlns:dc="http://purl.org/dc/elements/1.1/"
   xmlns:cc="http://creativecommons.org/ns#"
   xmlns:rdf="http://www.w3.org/1999/02/22-rdf-syntax-ns#"
   xmlns:svg="http://www.w3.org/2000/svg"
   xmlns="http://www.w3.org/2000/svg"
   xmlns:sodipodi="http://sodipodi.sourceforge.net/DTD/sodipodi-0.dtd"
   xmlns:inkscape="http://www.inkscape.org/namespaces/inkscape"
   version="1.1"
   id="svg2"
   xml:space="preserve"
   width="70.464798"
   height="54.666668"
   viewBox="0 0 70.464798 54.666668"
   sodipodi:docname="cheack.scg.svg"
   inkscape:version="0.92.1 r"><metadata
     id="metadata8"><rdf:RDF><cc:Work
         rdf:about=""><dc:format>image/svg+xml</dc:format><dc:type
           rdf:resource="http://purl.org/dc/dcmitype/StillImage" /><dc:title></dc:title></cc:Work></rdf:RDF></metadata><defs
     id="defs6"><clipPath
       clipPathUnits="userSpaceOnUse"
       id="clipPath18"><path
         d="M 0,41 H 52.849 V 0 H 0 Z"
         id="path16"
         inkscape:connector-curvature="0" /></clipPath><clipPath
       clipPathUnits="userSpaceOnUse"
       id="clipPath26"><path
         d="m -49.448,85.572 c 0,6.638 9.213,7.934 11.34,2.094 0.079,-0.218 0.336,-0.215 0.416,0.003 2.126,5.837 11.338,4.539 11.338,-2.097 0,-4.55 -7.836,-11.293 -11.547,-13.929 -3.714,2.636 -11.547,9.379 -11.547,13.929"
         id="path24"
         inkscape:connector-curvature="0"
         style="clip-rule:evenodd" /></clipPath></defs><sodipodi:namedview
     pagecolor="#ffffff"
     bordercolor="#666666"
     borderopacity="1"
     objecttolerance="10"
     gridtolerance="10"
     guidetolerance="10"
     inkscape:pageopacity="0"
     inkscape:pageshadow="2"
     inkscape:window-width="1134"
     inkscape:window-height="480"
     id="namedview4"
     showgrid="false"
     inkscape:zoom="4.3170731"
     inkscape:cx="6.0459576"
     inkscape:cy="27.333334"
     inkscape:window-x="228"
     inkscape:window-y="179"
     inkscape:window-maximized="0"
     inkscape:current-layer="g10" /><g
     id="g10"
     inkscape:groupmode="layer"
     inkscape:label="icones"
     transform="matrix(1.3333333,0,0,-1.3333333,0,54.666667)"><g
       id="g12"><g
         id="g14"
         clip-path="url(#clipPath18)"><g
           id="g20"><g
             id="g22"
             clip-path="url(#clipPath26)"><path
               d="m -351.448,-861.615 h 375 v 1217 h -375 z"
               style="fill:#ffffff;fill-opacity:1;fill-rule:nonzero;stroke:none"
               id="path28"
               inkscape:connector-curvature="0" /></g></g><g
           id="g30"
           transform="translate(23.5752,19.6646)"><path
             d="m 0,0 10.847,10.846 c 0.303,0.3 0.795,0.3 1.094,0 l 3.034,-3.03 c 0.3,-0.299 0.3,-0.795 0,-1.098 C 10.164,1.911 5.357,-2.893 0.55,-7.703 L 0.523,-7.73 0.492,-7.758 0.475,-7.769 0.444,-7.789 V -7.792 L 0.414,-7.812 0.396,-7.823 0.379,-7.833 0.362,-7.84 0.349,-7.851 0.328,-7.857 0.311,-7.864 0.294,-7.871 V -7.874 L 0.277,-7.881 0.26,-7.885 0.24,-7.892 0.223,-7.898 0.205,-7.901 V -7.905 L 0.188,-7.908 0.168,-7.912 0.15,-7.915 0.134,-7.919 0.113,-7.922 H 0.096 L 0.076,-7.926 H 0.059 L 0.041,-7.929 h -0.078 l -0.017,0.003 h -0.02 c -0.018,0.004 -0.034,0.004 -0.055,0.007 l -0.034,0.007 -0.021,0.004 -0.017,0.003 v 0.004 l -0.033,0.009 -0.022,0.007 -0.015,0.004 -0.018,0.007 c -0.023,0.01 -0.048,0.02 -0.068,0.034 l -0.018,0.007 -0.033,0.021 c -0.049,0.03 -0.096,0.068 -0.137,0.109 -12.736,12.732 4.009,-4.006 -8.73,8.73 -0.301,0.3 -0.301,0.791 0,1.095 l 3.029,3.03 c 0.304,0.3 0.795,0.3 1.099,0 L 0,0"
             style="fill:none;stroke:#979797;stroke-width:1;stroke-linecap:butt;stroke-linejoin:miter;stroke-miterlimit:10;stroke-dasharray:none;stroke-opacity:1"
             id="path32"
             inkscape:connector-curvature="0" /></g></g></g></g></svg>