<?xml version="1.0" encoding="UTF-8" standalone="no"?>
<!-- Created with Inkscape (http://www.inkscape.org/) -->

<svg
   xmlns:dc="http://purl.org/dc/elements/1.1/"
   xmlns:cc="http://creativecommons.org/ns#"
   xmlns:rdf="http://www.w3.org/1999/02/22-rdf-syntax-ns#"
   xmlns:svg="http://www.w3.org/2000/svg"
   xmlns="http://www.w3.org/2000/svg"
   xmlns:sodipodi="http://sodipodi.sourceforge.net/DTD/sodipodi-0.dtd"
   xmlns:inkscape="http://www.inkscape.org/namespaces/inkscape"
   version="1.1"
   id="svg2"
   xml:space="preserve"
   width="66.666664"
   height="54.666668"
   viewBox="0 0 66.666664 54.666668"
   sodipodi:docname="curtir.svg"
   inkscape:version="0.92.1 r"><metadata
     id="metadata8"><rdf:RDF><cc:Work
         rdf:about=""><dc:format>image/svg+xml</dc:format><dc:type
           rdf:resource="http://purl.org/dc/dcmitype/StillImage" /><dc:title></dc:title></cc:Work></rdf:RDF></metadata><defs
     id="defs6"><clipPath
       clipPathUnits="userSpaceOnUse"
       id="clipPath18"><path
         d="M 0,41 H 50 V 0 H 0 Z"
         id="path16"
         inkscape:connector-curvature="0" /></clipPath><clipPath
       clipPathUnits="userSpaceOnUse"
       id="clipPath26"><path
         d="m 188.402,85.572 c 0,6.638 9.213,7.934 11.34,2.094 0.079,-0.218 0.336,-0.215 0.416,0.003 2.126,5.837 11.339,4.539 11.339,-2.097 0,-4.55 -7.837,-11.293 -11.548,-13.929 -3.714,2.636 -11.547,9.379 -11.547,13.929"
         id="path24"
         inkscape:connector-curvature="0"
         style="clip-rule:evenodd" /></clipPath></defs><sodipodi:namedview
     pagecolor="#ffffff"
     bordercolor="#666666"
     borderopacity="1"
     objecttolerance="10"
     gridtolerance="10"
     guidetolerance="10"
     inkscape:pageopacity="0"
     inkscape:pageshadow="2"
     inkscape:window-width="745"
     inkscape:window-height="480"
     id="namedview4"
     showgrid="false"
     inkscape:zoom="4.3170731"
     inkscape:cx="33.333332"
     inkscape:cy="27.333334"
     inkscape:window-x="523"
     inkscape:window-y="207"
     inkscape:window-maximized="0"
     inkscape:current-layer="g10" /><g
     id="g10"
     inkscape:groupmode="layer"
     inkscape:label="icones"
     transform="matrix(1.3333333,0,0,-1.3333333,0,54.666667)"><g
       id="g12"><g
         id="g14"
         clip-path="url(#clipPath18)"><g
           id="g20"><g
             id="g22"
             clip-path="url(#clipPath26)"><path
               d="m -113.598,-861.615 h 375 v 1217 h -375 z"
               style="fill:#ffffff;fill-opacity:1;fill-rule:nonzero;stroke:none"
               id="path28"
               inkscape:connector-curvature="0" /></g></g><g
           id="g30"
           transform="translate(29.3145,24.667)"><path
             d="M 0,0 C 0.426,2.054 1.745,10.791 -2.987,10.791 -5.33,10.791 -4.32,8.578 -4.638,6.003 -4.772,4.923 -5.215,3.938 -5.804,3.037 -6.349,2.2 -6.906,1.02 -7.596,0.322 -7.825,0.091 -8.112,-0.073 -8.395,-0.233 c -0.306,-0.175 -1.44,-0.536 -1.44,-0.923 v -13.879 c 0,-0.247 0.181,-0.457 0.424,-0.49 1.595,-0.218 7.218,-0.979 8.789,-1.099 1.968,-0.149 6.003,0 6.003,0 1.001,-0.002 1.912,0.639 2.204,1.605 0.207,0.69 0.091,1.459 -0.539,2.091 1.96,-0.009 2.715,2.711 1.435,3.995 2.052,-0.009 2.767,3.085 1.253,4.265 C 12.441,-4.645 12.611,0 9.899,0 Z"
             style="fill:none;stroke:#c0c0c0;stroke-width:1;stroke-linecap:butt;stroke-linejoin:miter;stroke-miterlimit:10;stroke-dasharray:none;stroke-opacity:1"
             id="path32"
             inkscape:connector-curvature="0" /></g><g
           id="g34"
           transform="translate(9.3989,24.7891)"><path
             d="m 0,0 c -0.442,0 -0.801,-0.362 -0.801,-0.809 v -14.946 c 0,-0.447 0.359,-0.809 0.801,-0.809 h 6.684 c 0.443,0 0.802,0.362 0.802,0.809 V -0.809 C 7.486,-0.362 7.127,0 6.684,0 Z"
             style="fill:none;stroke:#d3d0d0;stroke-width:1;stroke-linecap:butt;stroke-linejoin:miter;stroke-miterlimit:10;stroke-dasharray:none;stroke-opacity:1"
             id="path36"
             inkscape:connector-curvature="0" /></g></g></g></g></svg>