<?xml version="1.0" encoding="UTF-8" standalone="no"?>
<!-- Created with Inkscape (http://www.inkscape.org/) -->

<svg
   xmlns:dc="http://purl.org/dc/elements/1.1/"
   xmlns:cc="http://creativecommons.org/ns#"
   xmlns:rdf="http://www.w3.org/1999/02/22-rdf-syntax-ns#"
   xmlns:svg="http://www.w3.org/2000/svg"
   xmlns="http://www.w3.org/2000/svg"
   xmlns:sodipodi="http://sodipodi.sourceforge.net/DTD/sodipodi-0.dtd"
   xmlns:inkscape="http://www.inkscape.org/namespaces/inkscape"
   version="1.1"
   id="svg3762"
   xml:space="preserve"
   width="66.666664"
   height="52.006535"
   viewBox="0 0 66.666664 52.006535"
   sodipodi:docname="icones-04_off.svg"
   inkscape:version="0.92+devel unknown"><metadata
     id="metadata3768"><rdf:RDF><cc:Work
         rdf:about=""><dc:format>image/svg+xml</dc:format><dc:type
           rdf:resource="http://purl.org/dc/dcmitype/StillImage" /><dc:title></dc:title></cc:Work></rdf:RDF></metadata><defs
     id="defs3766"><clipPath
       clipPathUnits="userSpaceOnUse"
       id="clipPath3780"><path
         d="m 14.99,21.762 c 0,-4.418 3.581,-8 8,-8 v 0 c 1.72,0 3.313,0.543 4.617,1.467 v 0 l 5.696,-5.693 c 0.39,-0.391 1.024,-0.391 1.414,0 v 0 c 0.391,0.39 0.391,1.023 0,1.413 v 0 l -5.632,5.632 c 1.187,1.396 1.905,3.205 1.905,5.181 v 0 c 0,4.418 -3.582,8 -8,8 v 0 c -4.419,0 -8,-3.582 -8,-8 m 1.999,0 c 0,3.315 2.687,6 6.001,6 v 0 c 3.313,0 5.999,-2.685 5.999,-6 v 0 c 0,-3.312 -2.686,-5.999 -5.999,-5.999 v 0 c -3.314,0 -6.001,2.687 -6.001,5.999"
         id="path3778"
         inkscape:connector-curvature="0" /></clipPath><clipPath
       clipPathUnits="userSpaceOnUse"
       id="clipPath3790"><path
         d="M 0,39.005 H 50 V 0 H 0 Z"
         id="path3788"
         inkscape:connector-curvature="0" /></clipPath><clipPath
       clipPathUnits="userSpaceOnUse"
       id="clipPath3798"><path
         d="m 131.652,-28.926 c 0,6.639 9.213,7.935 11.34,2.094 0.079,-0.218 0.336,-0.215 0.416,0.004 2.126,5.837 11.339,4.539 11.339,-2.098 0,-4.55 -7.837,-11.293 -11.548,-13.928 -3.714,2.635 -11.547,9.378 -11.547,13.928"
         clip-rule="evenodd"
         id="path3796"
         inkscape:connector-curvature="0" /></clipPath></defs><sodipodi:namedview
     pagecolor="#ffffff"
     bordercolor="#666666"
     inkscape:document-rotation="0"
     borderopacity="1"
     objecttolerance="10"
     gridtolerance="10"
     guidetolerance="10"
     inkscape:pageopacity="0"
     inkscape:pageshadow="2"
     inkscape:window-width="1440"
     inkscape:window-height="803"
     id="namedview3764"
     showgrid="false"
     inkscape:zoom="10.402539"
     inkscape:cx="33.333332"
     inkscape:cy="26.003267"
     inkscape:window-x="0"
     inkscape:window-y="27"
     inkscape:window-maximized="1"
     inkscape:current-layer="g3770" /><g
     id="g3770"
     inkscape:groupmode="layer"
     inkscape:label="icones"
     transform="matrix(1.3333333,0,0,-1.3333333,0,52.006533)"><g
       id="g3774"
       style="fill:#808080"><g
         id="g3776"
         clip-path="url(#clipPath3780)"
         style="fill:#808080"><path
           d="M 9.989,34.762 H 40.01 V 4.242 H 9.989 Z"
           style="fill:#808080;fill-opacity:1;fill-rule:nonzero;stroke:none"
           id="path3782"
           inkscape:connector-curvature="0" /></g></g><g
       id="g3784"><g
         id="g3786"
         clip-path="url(#clipPath3790)"><g
           id="g3792"><g
             id="g3794"
             clip-path="url(#clipPath3798)"><path
               d="m -170.348,-976.113 h 375 v 1217 h -375 z"
               style="fill:#ffffff;fill-opacity:1;fill-rule:nonzero;stroke:none"
               id="path3800"
               inkscape:connector-curvature="0" /></g></g></g></g></g></svg>