<svg id="Layer_1" data-name="Layer 1" xmlns="http://www.w3.org/2000/svg" xmlns:xlink="http://www.w3.org/1999/xlink" viewBox="0 0 50 39"><defs><style>.cls-1,.cls-2,.cls-3{fill:none;}.cls-1,.cls-4{clip-rule:evenodd;}.cls-28,.cls-3{fill-rule:evenodd;}.cls-14,.cls-28,.cls-4{fill:#fff;}.cls-5{clip-path:url(#clip-path);}.cls-6{clip-path:url(#clip-path-2);}.cls-7{clip-path:url(#clip-path-3);}.cls-8{clip-path:url(#clip-path-4);}.cls-9{clip-path:url(#clip-path-5);}.cls-10{clip-path:url(#clip-path-6);}.cls-11{clip-path:url(#clip-path-7);}.cls-12{clip-path:url(#clip-path-8);}.cls-13{clip-path:url(#clip-path-9);}.cls-15{clip-path:url(#clip-path-10);}.cls-16{clip-path:url(#clip-path-11);}.cls-17{clip-path:url(#clip-path-12);}.cls-18{clip-path:url(#clip-path-13);}.cls-19{clip-path:url(#clip-path-14);}.cls-20{clip-path:url(#clip-path-15);}.cls-21{clip-path:url(#clip-path-16);}.cls-22{clip-path:url(#clip-path-17);}.cls-23{clip-path:url(#clip-path-18);}.cls-24{clip-path:url(#clip-path-19);}.cls-25{clip-path:url(#clip-path-20);}.cls-26{clip-path:url(#clip-path-25);}.cls-27{clip-path:url(#clip-path-26);}.cls-29{clip-path:url(#clip-path-27);}.cls-30{clip-path:url(#clip-path-28);}.cls-31{clip-path:url(#clip-path-29);}.cls-32{clip-path:url(#clip-path-31);}.cls-33{clip-path:url(#clip-path-32);}.cls-34{clip-path:url(#clip-path-33);}.cls-35{clip-path:url(#clip-path-34);}</style><clipPath id="clip-path"><path class="cls-1" d="M-72.55-16.39v-1.39A1.71,1.71,0,0,0-71-18.88l5.11-13.47a3.54,3.54,0,0,1,3.29-2.27h2.3v1.39h-2.3a2.14,2.14,0,0,0-2,1.37l-5.11,13.47a3.11,3.11,0,0,1-2.89,2"/></clipPath><clipPath id="clip-path-2"><path class="cls-1" d="M-69.35-23.27l-3.16-8.33a2.54,2.54,0,0,0-2.36-1.63h-1.57v-1.39h1.57a3.94,3.94,0,0,1,3.66,2.53l3.16,8.33Z"/></clipPath><clipPath id="clip-path-3"><rect class="cls-2" x="-65.62" y="-34.62" width="18.55" height="18.6"/></clipPath><clipPath id="clip-path-4"><path class="cls-1" d="M-36.9-17.26a9,9,0,0,1-8.93-8.94v-7.73h1.39v7.73a7.55,7.55,0,0,0,7.54,7.55,7.55,7.55,0,0,0,7.54-7.55v-7.73H-28v7.73a9,9,0,0,1-8.93,8.94"/></clipPath><clipPath id="clip-path-5"><path class="cls-1" d="M-50.27,3.66V2.26a6.7,6.7,0,0,0,3.82-1.19A6.72,6.72,0,0,0-44-2.09l3.28-8.63a6,6,0,0,1,5.58-3.86h3.33v1.39h-3.33a4.61,4.61,0,0,0-4.29,3l-3.28,8.63a8.11,8.11,0,0,1-3,3.81,8.08,8.08,0,0,1-4.61,1.44"/></clipPath><clipPath id="clip-path-6"><rect class="cls-2" x="-76.45" y="-34.62" width="54.87" height="38.32"/></clipPath><clipPath id="clip-path-7"><path class="cls-1" d="M33.86-16.27H28a1,1,0,0,1-1-1v-5.35H23v5.35a1,1,0,0,1-1,1H16.14a1.06,1.06,0,0,1-1.06-1.06V-26.1H12.59a1.08,1.08,0,0,1-.92-.49,1.06,1.06,0,0,1,.18-1.35L24.22-39.41a1.06,1.06,0,0,1,.72-.28,1.06,1.06,0,0,1,.71.27L28.31-37v-1.45h5.53v6.53l4.31,4a1.06,1.06,0,0,1,.18,1.35,1.07,1.07,0,0,1-.92.5H34.92v8.77A1.06,1.06,0,0,1,33.86-16.27ZM28.22-17.5H33.7v-9.83H37l-4.39-4V-37.2H29.53v3l-4.6-4.22L13-27.33H16.3v9.83h5.48v-5.24a1.15,1.15,0,0,1,1.15-1.15h4.13a1.15,1.15,0,0,1,1.15,1.15Z"/></clipPath><clipPath id="clip-path-8"><path class="cls-1" d="M23,23.24a6,6,0,1,0-6-6A6,6,0,0,0,23,23.24Zm6.1-.82,5.63,5.63a1,1,0,0,1-1.41,1.41l-5.69-5.69a8,8,0,1,1,1.48-1.35Z"/></clipPath><clipPath id="clip-path-9"><rect class="cls-2" x="-84.01" y="-1024.76" width="375" height="1087"/></clipPath><clipPath id="clip-path-10"><path class="cls-1" d="M90.59-18.78H76.3a.56.56,0,0,1-.56-.57v-1.94c0-5.07,15.41-5.07,15.41,0v1.94A.57.57,0,0,1,90.59-18.78Zm2.26-18.09a13.27,13.27,0,0,0-9.4-3.89A13.26,13.26,0,0,0,74-36.87a13.22,13.22,0,0,0-2.89,4.32,13.33,13.33,0,0,0-1,5.08,13.3,13.3,0,0,0,13.3,13.3,13.3,13.3,0,0,0,13.3-13.3A13.29,13.29,0,0,0,92.85-36.87Zm-9.4,10.65c1.89,0,4.08-2.55,4.08-5.71s.54-5.7-4.08-5.7-4.08,2.55-4.08,5.7S81.56-26.22,83.45-26.22Z"/></clipPath><clipPath id="clip-path-11"><path class="cls-1" d="M92,24.28c-.05,0,0,0,0,0"/></clipPath><clipPath id="clip-path-12"><polygon class="cls-1" points="97.04 32.19 70.48 32.19 70.48 19.16 70.48 6.13 97.04 6.13 97.04 32.19"/></clipPath><clipPath id="clip-path-13"><path class="cls-1" d="M97.55,22l0,0c0,.08.34.29,0,0"/></clipPath><clipPath id="clip-path-14"><path class="cls-1" d="M151.45,26a2.71,2.71,0,0,0,.54-1.69c-1.43-.08-.95,2-.54,1.69"/></clipPath><clipPath id="clip-path-15"><path class="cls-1" d="M152,24.28c-.05,0,0,0,0,0"/></clipPath><clipPath id="clip-path-16"><path class="cls-1" d="M157.55,22l0,0c0,.08.34.29,0,0"/></clipPath><clipPath id="clip-path-17"><rect class="cls-2" x="13.43" y="59.97" width="22.52" height="21.53"/></clipPath><clipPath id="clip-path-18"><polygon class="cls-1" points="24.64 63.38 23.69 64.75 23.69 71.13 25.69 71.13 25.69 64.75 24.64 63.38"/></clipPath><clipPath id="clip-path-19"><polygon class="cls-1" points="19.39 73.97 20.88 74.2 25.57 71.5 24.57 69.77 19.88 72.48 19.39 73.97"/></clipPath><clipPath id="clip-path-20"><path class="cls-1" d="M26,70.74a1.36,1.36,0,1,1-1.36-1.35A1.35,1.35,0,0,1,26,70.74"/></clipPath><clipPath id="clip-path-25"><path class="cls-1" d="M81.39,79H71.55a.62.62,0,0,0,0,1.25h9.84a.62.62,0,0,0,0-1.25Zm7.38-12.47H71.55a.62.62,0,0,0,0,1.25H88.77a.62.62,0,0,0,0-1.25Zm-3.08,6.24H71.55a.62.62,0,0,0,0,1.25H85.69a.62.62,0,0,0,0-1.25ZM71.55,61.57H88.77a.62.62,0,0,0,0-1.25H71.55a.62.62,0,0,0,0,1.25Z"/></clipPath><clipPath id="clip-path-26"><rect class="cls-2" x="80.87" y="65.21" width="14.05" height="15.94"/></clipPath><clipPath id="clip-path-27"><path class="cls-4" d="M131.65,67.93c0-6.64,9.21-7.93,11.34-2.09a.21.21,0,0,0,.42,0c2.13-5.84,11.34-4.54,11.34,2.1,0,4.55-7.84,11.29-11.55,13.93C139.49,79.22,131.65,72.48,131.65,67.93Z"/></clipPath><clipPath id="clip-path-28"><path class="cls-1" d="M-34.72,72.7l10.85-10.85a.78.78,0,0,1,1.09,0l3,3a.78.78,0,0,1,0,1.1L-34.17,80.4l0,0,0,0h0l0,0h0l0,0H-35l-.07,0h0l0,0-.14-.11L-44,71.67a.78.78,0,0,1,0-1.09l3-3a.78.78,0,0,1,1.1,0l5.15,5.15"/></clipPath><clipPath id="clip-path-29"><path class="cls-1" d="M241.47-8A12.65,12.65,0,0,1,229.25-20.5,12.65,12.65,0,0,1,241.47-33H272A12.65,12.65,0,0,1,284.25-20.5,12.65,12.65,0,0,1,272-8H241.47Z"/></clipPath><clipPath id="clip-path-31"><ellipse class="cls-2" cx="271.08" cy="-20.5" rx="12.83" ry="12.5"/></clipPath><clipPath id="clip-path-32"><rect class="cls-2" x="13.09" y="119.53" width="24.97" height="26.95"/></clipPath><clipPath id="clip-path-33"><rect class="cls-2" x="137.97" y="120.31" width="17.89" height="20.41"/></clipPath><clipPath id="clip-path-34"><rect class="cls-2" x="129.18" y="121.27" width="22.24" height="22"/></clipPath></defs><title>icones</title><g class="cls-12"><g class="cls-13"><rect class="cls-14" x="9.99" y="4.24" width="30.02" height="30.52"/></g></g><path class="cls-28" d="M131.65,67.93c0-6.64,9.21-7.93,11.34-2.09a.21.21,0,0,0,.42,0c2.13-5.84,11.34-4.54,11.34,2.1,0,4.55-7.84,11.29-11.55,13.93C139.49,79.22,131.65,72.48,131.65,67.93Z"/><g class="cls-29"><rect class="cls-14" x="-170.35" y="-201.88" width="375" height="1217"/></g></svg>