<svg id="Layer_1" data-name="Layer 1" xmlns="http://www.w3.org/2000/svg" xmlns:xlink="http://www.w3.org/1999/xlink" viewBox="0 0 50 39"><defs><style>.cls-1,.cls-2,.cls-3{fill:none;}.cls-1,.cls-4{clip-rule:evenodd;}.cls-3,.cls-32{fill-rule:evenodd;}.cls-21,.cls-32,.cls-4{fill:#fff;}.cls-5{clip-path:url(#clip-path);}.cls-6{clip-path:url(#clip-path-2);}.cls-7{clip-path:url(#clip-path-3);}.cls-8{clip-path:url(#clip-path-4);}.cls-9{clip-path:url(#clip-path-5);}.cls-10{clip-path:url(#clip-path-6);}.cls-11{clip-path:url(#clip-path-7);}.cls-12{clip-path:url(#clip-path-8);}.cls-13{clip-path:url(#clip-path-9);}.cls-14{clip-path:url(#clip-path-10);}.cls-15{clip-path:url(#clip-path-11);}.cls-16{fill:#0b090c;}.cls-17{clip-path:url(#clip-path-12);}.cls-18{isolation:isolate;}.cls-19{clip-path:url(#clip-path-14);}.cls-20{clip-path:url(#clip-path-15);}.cls-22{clip-path:url(#clip-path-17);}.cls-23{clip-path:url(#clip-path-19);}.cls-24{clip-path:url(#clip-path-20);}.cls-25{clip-path:url(#clip-path-21);}.cls-26{clip-path:url(#clip-path-22);}.cls-27{clip-path:url(#clip-path-23);}.cls-28{clip-path:url(#clip-path-24);}.cls-29{clip-path:url(#clip-path-25);}.cls-30{clip-path:url(#clip-path-30);}.cls-31{clip-path:url(#clip-path-31);}.cls-33{clip-path:url(#clip-path-32);}.cls-34{clip-path:url(#clip-path-33);}.cls-35{clip-path:url(#clip-path-35);}.cls-36{clip-path:url(#clip-path-36);}.cls-37{clip-path:url(#clip-path-37);}.cls-38{clip-path:url(#clip-path-38);}.cls-39{clip-path:url(#clip-path-39);}.cls-40{clip-path:url(#clip-path-40);}.cls-41{clip-path:url(#clip-path-41);}</style><clipPath id="clip-path"><path class="cls-1" d="M-131-16.39v-1.39a1.71,1.71,0,0,0,1.59-1.1l5.11-13.47A3.54,3.54,0,0,1-121-34.62h2.3v1.39H-121a2.14,2.14,0,0,0-2,1.37l-5.11,13.47a3.11,3.11,0,0,1-2.89,2"/></clipPath><clipPath id="clip-path-2"><path class="cls-1" d="M-127.8-23.27-131-31.6a2.54,2.54,0,0,0-2.36-1.63h-1.57v-1.39h1.57a3.94,3.94,0,0,1,3.66,2.53l3.16,8.33Z"/></clipPath><clipPath id="clip-path-3"><rect class="cls-2" x="-124.07" y="-34.62" width="18.55" height="18.6"/></clipPath><clipPath id="clip-path-4"><path class="cls-1" d="M-95.35-17.26a9,9,0,0,1-8.93-8.94v-7.73h1.39v7.73a7.55,7.55,0,0,0,7.54,7.55,7.55,7.55,0,0,0,7.54-7.55v-7.73h1.39v7.73a9,9,0,0,1-8.93,8.94"/></clipPath><clipPath id="clip-path-5"><path class="cls-1" d="M-108.72,3.66V2.26a6.7,6.7,0,0,0,3.82-1.19,6.72,6.72,0,0,0,2.47-3.16l3.28-8.63a6,6,0,0,1,5.58-3.86h3.33v1.39h-3.33a4.61,4.61,0,0,0-4.29,3l-3.28,8.63a8.11,8.11,0,0,1-3,3.81,8.08,8.08,0,0,1-4.61,1.44"/></clipPath><clipPath id="clip-path-6"><rect class="cls-2" x="-134.9" y="-34.62" width="54.87" height="38.32"/></clipPath><clipPath id="clip-path-7"><path class="cls-1" d="M-24.59-16.27h-5.83a1,1,0,0,1-1-1v-5.35h-4v5.35a1,1,0,0,1-1,1h-5.83a1.06,1.06,0,0,1-1.06-1.06V-26.1h-2.49a1.08,1.08,0,0,1-.92-.49,1.06,1.06,0,0,1,.18-1.35l12.37-11.47a1.06,1.06,0,0,1,.72-.28,1.06,1.06,0,0,1,.71.27L-30.14-37v-1.45h5.53v6.53l4.31,4a1.06,1.06,0,0,1,.18,1.35,1.07,1.07,0,0,1-.92.5h-2.49v8.77A1.06,1.06,0,0,1-24.59-16.27Zm-5.64-1.23h5.48v-9.83h3.31l-4.39-4V-37.2h-3.08v3l-4.6-4.22-12,11.08h3.32v9.83h5.48v-5.24a1.15,1.15,0,0,1,1.15-1.15h4.13a1.15,1.15,0,0,1,1.15,1.15Z"/></clipPath><clipPath id="clip-path-8"><path class="cls-1" d="M-35.46,23.24a6,6,0,0,0,6-6,6,6,0,0,0-6-6,6,6,0,0,0-6,6A6,6,0,0,0-35.46,23.24Zm6.1-.82,5.63,5.63a1,1,0,0,1,0,1.41,1,1,0,0,1-1.41,0l-5.69-5.69a8,8,0,0,1-4.62,1.47,8,8,0,0,1-8-8,8,8,0,0,1,8-8,8,8,0,0,1,8,8A8,8,0,0,1-29.36,22.42Z"/></clipPath><clipPath id="clip-path-9"><path class="cls-1" d="M32.14-18.78H17.85a.56.56,0,0,1-.56-.57v-1.94c0-5.07,15.41-5.07,15.41,0v1.94A.57.57,0,0,1,32.14-18.78ZM34.4-36.87A13.27,13.27,0,0,0,25-40.76a13.26,13.26,0,0,0-9.4,3.89,13.22,13.22,0,0,0-2.89,4.32,13.33,13.33,0,0,0-1,5.08A13.3,13.3,0,0,0,25-14.17a13.3,13.3,0,0,0,13.3-13.3A13.29,13.29,0,0,0,34.4-36.87ZM25-26.22c1.89,0,4.08-2.55,4.08-5.71s.54-5.7-4.08-5.7-4.08,2.55-4.08,5.7S23.11-26.22,25-26.22Z"/></clipPath><clipPath id="clip-path-10"><path class="cls-1" d="M33.56,24.28c-.05,0,0,0,0,0"/></clipPath><clipPath id="clip-path-11"><rect class="cls-2" x="-240.97" y="-860.92" width="375" height="923"/></clipPath><clipPath id="clip-path-12"><polygon class="cls-1" points="38.59 32.19 12.03 32.19 12.03 19.16 12.03 6.13 38.59 6.13 38.59 32.19"/></clipPath><clipPath id="clip-path-14"><rect class="cls-2" x="12.03" y="6.08" width="27" height="27"/></clipPath><clipPath id="clip-path-15"><path class="cls-1" d="M25.31,6.13A13.17,13.17,0,0,0,12,19.16a13.28,13.28,0,0,0,26.56,0,13.17,13.17,0,0,0-13.28-13m-12.21,13a11.65,11.65,0,0,1,.62-3.76l.07-.19c-.07,1.48-.29,2.89.49,4.32a.25.25,0,0,0,.15-.36,7.84,7.84,0,0,0,2.67,2.51c.11,0,.77.13.74.07.35.73-.69,1.3-.21,2,.85,1.3,1.31,1.65,1.38,3.22,0,.46.05.91.11,1.37a8.12,8.12,0,0,0,.2,1.17A11.86,11.86,0,0,1,13.1,19.16m24,2.44a12.08,12.08,0,0,1-11.86,9.45A12.23,12.23,0,0,1,20,29.92c-.59-1.4,2.08-3.73,2.63-4.67,1-1.76-1.21-2.76-2.53-3.64-1-.69-1.47-.23-2.48,0-.81.17-.37-1.42-.75-1.76a2.29,2.29,0,0,1-.83.23c-.42-.13-.41-.7-.18-1,.88-1.14,1.36.51,2,.42.13-.66,1-1.25,1-1.89.45-.4,1.71-.55,1.94-1.09,0,0-.48-.12-.45-.23s.65-.18.83-.24c-.21.41,0,.77.54.44-.44-.54-.06-2.44-1.22-2.07a.69.69,0,0,0,0-.56c.46.08.63-.33.53-.72.16.41.35.42.57,0-.24-.37-.38-.79-.6-1.16a1.63,1.63,0,0,0-1-.78,2.34,2.34,0,0,0,.54-.13.66.66,0,0,0-.42-.31c.56-.09,1.19-.56,1.75-.56,0,0-.58.37-.39.54-.31.69.4.16.53.48.39,1,0,2.71,1,3.33.41-.7,1.23-.94,1.86-1.36s.76-1.07.89-1.84a1.2,1.2,0,0,1,.59-.93,15.83,15.83,0,0,0-4.5-1c-1.08-.46-2.12.49-3.16,0,0,.43.49.95.65,1.33-.12,0-.77-1-.87-.54,0-.17-.38-.36-.81-.48l.08-.06L18,9.64a12.28,12.28,0,0,1,14.64.1l.11.08.21.16h0a12.19,12.19,0,0,1,1.39,1.32c-.43.23-.81.38-.93,1.08-1.27-.28-.91-.89-.06-1.5-.78-.3-1.78.9-.88,1.4,1.13.63-1.1,0-1,.92a2.41,2.41,0,0,0-2.64-.06c-.79.74-.31,2.21-1.21,2.85,0-.34,0-1-.4-1.2-.66-.25-.6.76-1,1.08a1.71,1.71,0,0,0,1,.36.43.43,0,0,0-.1.53c.14.32-1.68,1.14-.36,1.53-1.41.45-1.91,3-.58,3.74a6.25,6.25,0,0,0,1.86.36c1,.24,1.06,1.64,1.12,2.44.12,1.78.6,3.43,2.1,1.43A10.51,10.51,0,0,0,32,24.6c.55-1.06,1.54-2.08,1.64-3.32a1.73,1.73,0,0,1-1,0c1.06-.36,1.55-.65,1.55-1.79a3.47,3.47,0,0,1,2.88,2.13"/></clipPath><clipPath id="clip-path-17"><path class="cls-1" d="M39.1,22l0,0c0,.08.34.29,0,0"/></clipPath><clipPath id="clip-path-19"><path class="cls-1" d="M93,26a2.71,2.71,0,0,0,.54-1.69c-1.43-.08-.95,2-.54,1.69"/></clipPath><clipPath id="clip-path-20"><path class="cls-1" d="M93.56,24.28c-.05,0,0,0,0,0"/></clipPath><clipPath id="clip-path-21"><path class="cls-1" d="M99.1,22l0,0c0,.08.34.29,0,0"/></clipPath><clipPath id="clip-path-22"><rect class="cls-2" x="-45.02" y="59.97" width="22.52" height="21.53"/></clipPath><clipPath id="clip-path-23"><polygon class="cls-1" points="-33.81 63.38 -34.76 64.75 -34.76 71.13 -32.76 71.13 -32.76 64.75 -33.81 63.38"/></clipPath><clipPath id="clip-path-24"><polygon class="cls-1" points="-39.06 73.97 -37.58 74.2 -32.88 71.5 -33.88 69.77 -38.57 72.48 -39.06 73.97"/></clipPath><clipPath id="clip-path-25"><path class="cls-1" d="M-32.4,70.74a1.35,1.35,0,0,1-1.36,1.35,1.35,1.35,0,0,1-1.36-1.35,1.35,1.35,0,0,1,1.36-1.35,1.35,1.35,0,0,1,1.36,1.35"/></clipPath><clipPath id="clip-path-30"><path class="cls-1" d="M22.94,79H13.1a.62.62,0,0,0,0,1.25h9.84a.62.62,0,0,0,0-1.25Zm7.38-12.47H13.1a.62.62,0,0,0,0,1.25H30.32a.62.62,0,0,0,0-1.25Zm-3.08,6.24H13.1a.62.62,0,0,0,0,1.25H27.24a.62.62,0,0,0,0-1.25ZM13.1,61.57H30.32a.62.62,0,0,0,0-1.25H13.1a.62.62,0,0,0,0,1.25Z"/></clipPath><clipPath id="clip-path-31"><rect class="cls-2" x="22.42" y="65.21" width="14.05" height="15.94"/></clipPath><clipPath id="clip-path-32"><path class="cls-4" d="M73.2,67.93c0-6.64,9.21-7.93,11.34-2.09a.21.21,0,0,0,.42,0C87.08,60,96.3,61.29,96.3,67.93c0,4.55-7.84,11.29-11.55,13.93C81,79.22,73.2,72.48,73.2,67.93Z"/></clipPath><clipPath id="clip-path-33"><path class="cls-1" d="M183-8A12.65,12.65,0,0,1,170.8-20.5,12.65,12.65,0,0,1,183-33h30.55A12.65,12.65,0,0,1,225.8-20.5,12.65,12.65,0,0,1,213.58-8H183Z"/></clipPath><clipPath id="clip-path-35"><rect class="cls-2" x="-114.2" y="-601" width="375" height="1311"/></clipPath><clipPath id="clip-path-36"><ellipse class="cls-2" cx="212.63" cy="-20.5" rx="12.83" ry="12.5"/></clipPath><clipPath id="clip-path-37"><rect class="cls-2" x="-45.36" y="119.53" width="24.97" height="26.95"/></clipPath><clipPath id="clip-path-38"><rect class="cls-2" x="79.52" y="120.31" width="17.89" height="20.41"/></clipPath><clipPath id="clip-path-39"><rect class="cls-2" x="70.73" y="121.27" width="22.24" height="22"/></clipPath><clipPath id="clip-path-40"><rect class="cls-2" x="274.11" y="44.05" width="42.31" height="42.31"/></clipPath><clipPath id="clip-path-41"><path class="cls-1" d="M229,87.95a28,28,0,1,1,28-28A28,28,0,0,1,229,87.95Zm0-54.74a26.74,26.74,0,1,0,26.74,26.74A26.77,26.77,0,0,0,229,33.21Z"/></clipPath></defs><title>icones</title><g class="cls-14"><g class="cls-15"><rect class="cls-16" x="28.54" y="19.28" width="10.02" height="10"/></g></g><g class="cls-17"><g class="cls-15"><g class="cls-18"><g class="cls-19"><g class="cls-20"><g class="cls-19"><rect class="cls-21" x="7.03" y="1.13" width="36.56" height="36.06"/></g></g></g></g></g></g><g class="cls-22"><g class="cls-15"><rect class="cls-16" x="34.06" y="16.92" width="10.16" height="10.16"/></g></g><path class="cls-32" d="M73.2,67.93c0-6.64,9.21-7.93,11.34-2.09a.21.21,0,0,0,.42,0C87.08,60,96.3,61.29,96.3,67.93c0,4.55-7.84,11.29-11.55,13.93C81,79.22,73.2,72.48,73.2,67.93Z"/><g class="cls-33"><rect class="cls-21" x="-228.8" y="-201.88" width="375" height="1217"/></g><g class="cls-34"><g class="cls-35"><path class="cls-32" d="M25-8A12.65,12.65,0,0,1,12.8-20.5,12.65,12.65,0,0,1,25-33H55.58A12.65,12.65,0,0,1,67.8-20.5,12.65,12.65,0,0,1,55.58-8H25ZM2.8-43h79V7H2.8Z"/></g></g></svg>