<?xml version="1.0" encoding="UTF-8" standalone="no"?>
<!-- Created with Inkscape (http://www.inkscape.org/) -->

<svg
   xmlns:dc="http://purl.org/dc/elements/1.1/"
   xmlns:cc="http://creativecommons.org/ns#"
   xmlns:rdf="http://www.w3.org/1999/02/22-rdf-syntax-ns#"
   xmlns:svg="http://www.w3.org/2000/svg"
   xmlns="http://www.w3.org/2000/svg"
   xmlns:sodipodi="http://sodipodi.sourceforge.net/DTD/sodipodi-0.dtd"
   xmlns:inkscape="http://www.inkscape.org/namespaces/inkscape"
   version="1.1"
   id="svg4523"
   xml:space="preserve"
   width="66.666"
   height="52.006535"
   viewBox="0 0 66.666 52.006535"
   sodipodi:docname="icones-07_off.svg"
   inkscape:version="0.92+devel unknown"><metadata
     id="metadata4529"><rdf:RDF><cc:Work
         rdf:about=""><dc:format>image/svg+xml</dc:format><dc:type
           rdf:resource="http://purl.org/dc/dcmitype/StillImage" /><dc:title></dc:title></cc:Work></rdf:RDF></metadata><defs
     id="defs4527"><clipPath
       clipPathUnits="userSpaceOnUse"
       id="clipPath4541"><path
         d="m 32.589,13.865 c -0.033,-0.496 0.2,-0.993 0.412,-0.829 v 0 c 0.411,0.346 0.501,1.189 0.544,1.688 v 0 c -0.027,0.002 -0.054,0.003 -0.08,0.003 v 0 c -0.618,0 -0.846,-0.431 -0.876,-0.862"
         id="path4539"
         inkscape:connector-curvature="0" /></clipPath><clipPath
       clipPathUnits="userSpaceOnUse"
       id="clipPath4551"><path
         d="m 33.541,14.724 c 0.006,-10e-4 0.019,-10e-4 0.019,0 v 0 c -0.01,0 -0.015,0 -0.019,0 m 0,0 c -0.005,0 -0.003,0 0,0"
         id="path4549"
         inkscape:connector-curvature="0" /></clipPath><clipPath
       clipPathUnits="userSpaceOnUse"
       id="clipPath4561"><path
         d="m 39.105,17.049 c -0.015,0.013 -0.027,0.025 -0.041,0.037 v 0 c -0.027,-0.082 0.343,-0.296 0.041,-0.037"
         id="path4559"
         inkscape:connector-curvature="0" /></clipPath><clipPath
       clipPathUnits="userSpaceOnUse"
       id="clipPath4575"><path
         d="M 0,39.005 H 50 V 0 H 0 Z"
         id="path4573"
         inkscape:connector-curvature="0" /></clipPath><clipPath
       clipPathUnits="userSpaceOnUse"
       id="clipPath4583"><path
         d="m 13.203,-28.926 c 0,6.639 9.213,7.935 11.339,2.094 0.08,-0.218 0.336,-0.215 0.416,0.004 2.126,5.837 11.339,4.539 11.339,-2.098 0,-4.55 -7.837,-11.293 -11.547,-13.928 -3.714,2.635 -11.547,9.378 -11.547,13.928"
         clip-rule="evenodd"
         id="path4581"
         inkscape:connector-curvature="0" /></clipPath><clipPath
       clipPathUnits="userSpaceOnUse"
       id="clipPath4593"><path
         d="m 123.023,47.019 c -6.805,0.31 -12.223,5.782 -12.223,12.486 0,6.704 5.418,12.176 12.223,12.486 v 0.014 h 30.555 v -0.014 c 6.804,-0.31 12.222,-5.782 12.222,-12.486 0,-6.704 -5.418,-12.176 -12.222,-12.486 v -0.014 h -30.555 z"
         clip-rule="evenodd"
         id="path4591"
         inkscape:connector-curvature="0" /></clipPath><clipPath
       clipPathUnits="userSpaceOnUse"
       id="clipPath4601"><path
         d="m -174.2,-670.996 h 375 v 1311 h -375 z"
         id="path4599"
         inkscape:connector-curvature="0" /></clipPath></defs><sodipodi:namedview
     pagecolor="#ffffff"
     bordercolor="#666666"
     inkscape:document-rotation="0"
     borderopacity="1"
     objecttolerance="10"
     gridtolerance="10"
     guidetolerance="10"
     inkscape:pageopacity="0"
     inkscape:pageshadow="2"
     inkscape:window-width="1440"
     inkscape:window-height="803"
     id="namedview4525"
     showgrid="false"
     inkscape:zoom="10.402539"
     inkscape:cx="33.333"
     inkscape:cy="26.003267"
     inkscape:window-x="0"
     inkscape:window-y="27"
     inkscape:window-maximized="1"
     inkscape:current-layer="g4531" /><g
     id="g4531"
     inkscape:groupmode="layer"
     inkscape:label="icones"
     transform="matrix(1.3333333,0,0,-1.3333333,0,52.006533)"><g
       id="g4545"><g
         id="g4547"
         clip-path="url(#clipPath4551)"><path
           d="M 28.537,19.724 H 38.56 v -10 H 28.537 Z"
           style="fill:#0b090c;fill-opacity:1;fill-rule:nonzero;stroke:none"
           id="path4553"
           inkscape:connector-curvature="0" /></g></g><g
       id="g4555"><g
         id="g4557"
         clip-path="url(#clipPath4561)"><path
           d="M 34.062,22.085 H 44.224 V 11.925 H 34.062 Z"
           style="fill:#0b090c;fill-opacity:1;fill-rule:nonzero;stroke:none"
           id="path4563"
           inkscape:connector-curvature="0" /></g></g><g
       id="g4565"
       transform="translate(35.3862,19.5024)"
       style="fill:#808080"><path
         d="M 0,0 -20.773,-10.523 V 10.523 Z"
         style="fill:#808080;stroke:#ffffff;stroke-width:1;stroke-linecap:butt;stroke-linejoin:miter;stroke-miterlimit:10;stroke-dasharray:none;stroke-opacity:1"
         id="path4567"
         inkscape:connector-curvature="0" /></g><g
       id="g4569"><g
         id="g4571"
         clip-path="url(#clipPath4575)"><g
           id="g4577"><g
             id="g4579"
             clip-path="url(#clipPath4583)"><path
               d="m -288.797,-976.113 h 375 v 1217 h -375 z"
               style="fill:#ffffff;fill-opacity:1;fill-rule:nonzero;stroke:none"
               id="path4585"
               inkscape:connector-curvature="0" /></g></g><g
           id="g4587"><g
             id="g4589"
             clip-path="url(#clipPath4593)"><g
               id="g4595"><g
                 id="g4597"
                 clip-path="url(#clipPath4601)"><path
                   d="m -57.2,82.005 h 79 v -50 h -79 z m 22.222,-34.986 c -6.803,0.31 -12.222,5.782 -12.222,12.486 0,6.704 5.419,12.176 12.222,12.486 v 0.014 H -4.422 V 71.991 C 2.382,71.681 7.8,66.209 7.8,59.505 7.8,52.801 2.382,47.329 -4.422,47.019 v -0.014 h -30.556 z"
                   style="fill:#ffffff;fill-opacity:1;fill-rule:evenodd;stroke:none"
                   id="path4603"
                   inkscape:connector-curvature="0" /></g></g></g></g></g></g></g></svg>