<?xml version="1.0" encoding="UTF-8" standalone="no"?>
<!-- Created with Inkscape (http://www.inkscape.org/) -->

<svg
   xmlns:dc="http://purl.org/dc/elements/1.1/"
   xmlns:cc="http://creativecommons.org/ns#"
   xmlns:rdf="http://www.w3.org/1999/02/22-rdf-syntax-ns#"
   xmlns:svg="http://www.w3.org/2000/svg"
   xmlns="http://www.w3.org/2000/svg"
   xmlns:sodipodi="http://sodipodi.sourceforge.net/DTD/sodipodi-0.dtd"
   xmlns:inkscape="http://www.inkscape.org/namespaces/inkscape"
   version="1.1"
   id="svg2"
   xml:space="preserve"
   width="66.666664"
   height="54.666668"
   viewBox="0 0 66.666664 54.666668"
   sodipodi:docname="love.svg"
   inkscape:version="0.92.1 r"><metadata
     id="metadata8"><rdf:RDF><cc:Work
         rdf:about=""><dc:format>image/svg+xml</dc:format><dc:type
           rdf:resource="http://purl.org/dc/dcmitype/StillImage" /><dc:title></dc:title></cc:Work></rdf:RDF></metadata><defs
     id="defs6"><clipPath
       clipPathUnits="userSpaceOnUse"
       id="clipPath18"><path
         d="M 0,41 H 50 V 0 H 0 Z"
         id="path16"
         inkscape:connector-curvature="0" /></clipPath><clipPath
       clipPathUnits="userSpaceOnUse"
       id="clipPath26"><path
         d="m 73.703,85.572 c 0,6.638 9.213,7.934 11.339,2.094 0.08,-0.218 0.336,-0.215 0.416,0.003 2.126,5.837 11.339,4.539 11.339,-2.097 0,-4.55 -7.837,-11.293 -11.547,-13.929 -3.714,2.636 -11.547,9.379 -11.547,13.929"
         id="path24"
         inkscape:connector-curvature="0"
         style="clip-rule:evenodd" /></clipPath></defs><sodipodi:namedview
     pagecolor="#ffffff"
     bordercolor="#666666"
     borderopacity="1"
     objecttolerance="10"
     gridtolerance="10"
     guidetolerance="10"
     inkscape:pageopacity="0"
     inkscape:pageshadow="2"
     inkscape:window-width="640"
     inkscape:window-height="480"
     id="namedview4"
     showgrid="false"
     inkscape:zoom="4.3170731"
     inkscape:cx="33.796609"
     inkscape:cy="26.40678"
     inkscape:window-x="485"
     inkscape:window-y="140"
     inkscape:window-maximized="0"
     inkscape:current-layer="g10" /><g
     id="g10"
     inkscape:groupmode="layer"
     inkscape:label="icones"
     transform="matrix(1.3333333,0,0,-1.3333333,0,54.666667)"><g
       id="g12"><g
         id="g14"
         clip-path="url(#clipPath18)"><g
           id="g20"><g
             id="g22"
             clip-path="url(#clipPath26)"><path
               d="m -228.297,-861.615 h 375 v 1217 h -375 z"
               style="fill:#ffffff;fill-opacity:1;fill-rule:nonzero;stroke:none"
               id="path28"
               inkscape:connector-curvature="0" /></g></g><g
           id="g30"
           transform="translate(14,24.541)"><path
             d="M 0,0 C 0,6.611 9.175,7.902 11.293,2.086 11.373,1.869 11.628,1.871 11.708,2.089 13.825,7.902 23,6.61 23,0 23,-4.531 15.196,-11.247 11.5,-13.871 7.801,-11.247 0,-4.531 0,0 Z"
             style="fill:none;stroke:#aeaeae;stroke-width:1;stroke-linecap:butt;stroke-linejoin:miter;stroke-miterlimit:10;stroke-dasharray:none;stroke-opacity:1"
             id="path32"
             inkscape:connector-curvature="0" /></g></g></g></g></svg>