<?xml version="1.0" encoding="UTF-8" standalone="no"?>
<!-- Created with Inkscape (http://www.inkscape.org/) -->

<svg
   xmlns:dc="http://purl.org/dc/elements/1.1/"
   xmlns:cc="http://creativecommons.org/ns#"
   xmlns:rdf="http://www.w3.org/1999/02/22-rdf-syntax-ns#"
   xmlns:svg="http://www.w3.org/2000/svg"
   xmlns="http://www.w3.org/2000/svg"
   xmlns:sodipodi="http://sodipodi.sourceforge.net/DTD/sodipodi-0.dtd"
   xmlns:inkscape="http://www.inkscape.org/namespaces/inkscape"
   version="1.1"
   id="svg2"
   xml:space="preserve"
   width="84.945335"
   height="83.848267"
   viewBox="0 0 84.945335 83.848267"
   sodipodi:docname="player_pause.svg"
   inkscape:version="0.92.1 r"><metadata
     id="metadata8"><rdf:RDF><cc:Work
         rdf:about=""><dc:format>image/svg+xml</dc:format><dc:type
           rdf:resource="http://purl.org/dc/dcmitype/StillImage" /><dc:title></dc:title></cc:Work></rdf:RDF></metadata><defs
     id="defs6"><clipPath
       clipPathUnits="userSpaceOnUse"
       id="clipPath18"><path
         d="m 3.855,31.443 c 0,-15.439 12.56,-28 28,-28 v 0 c 15.439,0 28,12.561 28,28 v 0 c 0,15.439 -12.561,28 -28,28 v 0 c -15.44,0 -28,-12.561 -28,-28 m 1.26,0 c 0,14.743 11.996,26.74 26.74,26.74 v 0 c 14.743,0 26.739,-11.997 26.739,-26.74 v 0 C 58.594,16.699 46.598,4.702 31.855,4.702 v 0 c -14.744,0 -26.74,11.997 -26.74,26.741"
         id="path16"
         inkscape:connector-curvature="0" /></clipPath></defs><sodipodi:namedview
     pagecolor="#ffffff"
     bordercolor="#666666"
     borderopacity="1"
     objecttolerance="10"
     gridtolerance="10"
     guidetolerance="10"
     inkscape:pageopacity="0"
     inkscape:pageshadow="2"
     inkscape:window-width="640"
     inkscape:window-height="480"
     id="namedview4"
     showgrid="false"
     inkscape:zoom="2.814608"
     inkscape:cx="43.183246"
     inkscape:cy="40.502976"
     inkscape:window-x="0"
     inkscape:window-y="27"
     inkscape:window-maximized="0"
     inkscape:current-layer="g10" /><g
     id="g10"
     inkscape:groupmode="layer"
     inkscape:label="icones"
     transform="matrix(1.3333333,0,0,-1.3333333,0,83.848267)"><g
       id="g12"><g
         id="g14"
         clip-path="url(#clipPath18)"><path
           d="m -1.146,64.443 h 66 v -66 h -66 z"
           style="fill:#d3d0d0;fill-opacity:1;fill-rule:nonzero;stroke:none"
           id="path20"
           inkscape:connector-curvature="0" /></g></g><g
       id="g22"
       transform="translate(25.3545,40.9429)"><path
         d="M 0,0 V -19.646"
         style="fill:none;stroke:#d3d0d0;stroke-width:1;stroke-linecap:square;stroke-linejoin:miter;stroke-miterlimit:10;stroke-dasharray:none;stroke-opacity:1"
         id="path24"
         inkscape:connector-curvature="0" /></g><g
       id="g26"
       transform="translate(37.3545,40.9429)"><path
         d="M 0,0 V -19.646"
         style="fill:none;stroke:#d3d0d0;stroke-width:1;stroke-linecap:square;stroke-linejoin:miter;stroke-miterlimit:10;stroke-dasharray:none;stroke-opacity:1"
         id="path28"
         inkscape:connector-curvature="0" /></g></g></svg>